<?xml version="1.0" encoding="UTF-8" standalone="no"?>
<!DOCTYPE svg  PUBLIC '-//W3C//DTD SVG 1.1//EN'  'http://www.w3.org/Graphics/SVG/1.1/DTD/svg11.dtd'>
<svg xmlns="http://www.w3.org/2000/svg" version="1.1">
<defs>
<font id="AngleciaProDisplay-Medium" horiz-adv-x="623">
<font-face underline-position="-150" x-height="500" underline-thickness="50" font-weight="500" descent="-220" font-family="Anglecia Pro Display" units-per-em="1000" unicode-range="U+0020-04D9" panose-1="2 5 0 3 8 0 0 0 0 0" bbox="-44 -234 1193 902" ascent="780" cap-height="700"/>
<missing-glyph/>
<glyph glyph-name="space" unicode=" " horiz-adv-x="216"/>
<glyph glyph-name="exclam" unicode="!" horiz-adv-x="221" d="M123 203h-25q-13 150 -29 258q-16 106 -22 132q-7 29 -7 40q0 31 20 51t50 20q31 0 51 -20t20 -51q0 -6 -8 -40q-25 -115 -50 -390zM110 130q29 0 48 -19t19 -48t-19 -48t-48 -19q-28 0 -47 19.5t-19 47.5t19 47.5t47 19.5z"/>
<glyph glyph-name="quotedbl" unicode='&quot;' horiz-adv-x="301" d="M98 490h-23q-6 61 -20 112q-13 48 -13 57q0 20 12.5 32.5t31.5 12.5q20 0 33 -12.5t13 -32.5q0 -5 -14 -56q-14 -53 -20 -113zM230 490h-23q-4 58 -19 113q-14 51 -14 56q0 20 12.5 32.5t32.5 12.5q19 0 32 -13t13 -32q0 -5 -14 -56q-14 -53 -20 -113z"/>
<glyph glyph-name="numbersign" unicode="#" horiz-adv-x="563" d="M181 450h-112v34h122l64 216h37l-64 -216h188l64 216h37l-65 -216h80v-34h-90l-59 -200h112v-34h-123l-63 -216h-37l64 216h-188l-64 -216h-37l64 216h-79v34h89zM406 450h-188l-60 -200h188z"/>
<glyph glyph-name="dollar" unicode="$" horiz-adv-x="593" d="M300 -6l-1 -44h-25l1 44q-95 3 -174 45h-54v128h18q15 -63 55 -100q37 -34 73 -46t82 -12l5 286l-1 1l-49 15q-6 2 -45 16q-28 10 -44 20q-48 31 -64 59q-24 44 -24 97q0 92 60 147t174 56l1 44h25l-1 -45q82 -5 153 -44h53v-128h-18q-20 85 -75 120q-55 37 -113 38 l-5 -266q1 -1 4 -1q57 -18 73 -25q28 -11 62 -30q36 -19 56 -40q47 -51 47 -127q0 -93 -63.5 -149t-185.5 -59zM447 155q0 57 -33 82q-31 27 -109 51l-5 -278q70 5 108.5 43t38.5 102zM155 556q0 -49 28.5 -75t98.5 -48l5 257q-62 -5 -97 -41t-35 -93z"/>
<glyph glyph-name="percent" unicode="%" horiz-adv-x="730" d="M191 706q66 0 107 -49.5t41 -131.5q0 -83 -41 -132t-107 -49q-67 0 -108 49t-41 132t41 132t108 49zM191 359q32 0 51 43t19 123t-19 123t-51 43q-33 0 -51.5 -43t-18.5 -123t18.5 -123t51.5 -43zM597 700l-420 -700h-43l420 700h43zM391 175q0 81 41.5 131t107.5 50 t107 -49.5t41 -131.5q0 -83 -41 -132t-107 -49q-67 0 -108 49t-41 132zM540 9q33 0 51.5 43t18.5 123t-18.5 123t-51.5 43q-32 0 -51 -43t-19 -123t19 -123t51 -43z"/>
<glyph glyph-name="ampersand" unicode="&amp;" horiz-adv-x="732" d="M681 402l-62 -20q0 -134 -50 -228l99 -125l54 -17v-12h-189l-55 66q-74 -71 -190 -71q-112 0 -179 54q-67 55 -67 146q0 83 54 131q44 38 122 72q-63 86 -63 159q0 69 45 108.5t131 39.5q76 0 114.5 -32t38.5 -89q0 -95 -128 -166l198 -245q41 84 41 209l-62 20v9h148v-9 zM320 25q87 0 145 58l-207 259q-48 -32 -70.5 -68.5t-22.5 -91.5q0 -157 155 -157zM271 593q0 -64 62 -144q125 60 125 140q0 44 -29 70.5t-75 26.5q-83 0 -83 -93z"/>
<glyph glyph-name="quotesingle" unicode="&apos;" horiz-adv-x="173" d="M98 490h-23q-6 61 -20 112q-13 48 -13 57q0 20 12.5 32.5t31.5 12.5q20 0 33 -12.5t13 -32.5q0 -5 -14 -56q-14 -53 -20 -113z"/>
<glyph glyph-name="parenleft" unicode="(" horiz-adv-x="280" d="M241 755l12 -11q-95 -198 -95 -469t95 -469l-12 -11q-97 96 -147 209q-49 111 -49 271t49 271q50 113 147 209z"/>
<glyph glyph-name="parenright" unicode=")" horiz-adv-x="280" d="M40 -205l-12 11q94 192 94 469t-94 469l12 11q95 -94 146 -209q49 -111 49 -271t-49 -271q-51 -115 -146 -209z"/>
<glyph glyph-name="asterisk" unicode="*" horiz-adv-x="427" d="M219 498q-32 -54 -46 -88l-18 -43q-8 -12 -22.5 -14.5t-26.5 6.5q-12 8 -14 22.5t7 26.5q1 2 35 30q34 30 70 71q-54 13 -98 15q-44 3 -47 4q-20 7 -23 26t11 33t34 8l39 -25q40 -24 89 -45q-4 55 -15 97q-10 40 -10 47q0 21 17.5 30t35 0t17.5 -30q0 -2 -5 -22.5 t-11.5 -55t-9.5 -66.5q34 14 64 31t45 27t19 11q15 5 28 -1.5t17 -20.5q5 -14 -2 -27t-22 -17q-4 -2 -22 -2.5t-51.5 -4.5t-69.5 -13q24 -28 49 -51.5t39 -34.5t16 -14q10 -13 8 -27t-15 -23q-12 -8 -26 -6t-23 15q-2 3 -8.5 20t-21 47.5t-33.5 63.5z"/>
<glyph glyph-name="plus" unicode="+" horiz-adv-x="452" d="M209 283h-173v34h173v173h34v-173h173v-34h-173v-173h-34v173z"/>
<glyph glyph-name="comma" unicode="," horiz-adv-x="207" d="M63 -119l-12 12q22 22 39 51t17 45q0 7 -4 11q-29 0 -47.5 18t-18.5 47q0 28 18.5 46.5t47.5 18.5q30 0 48.5 -19.5t18.5 -52.5q0 -70 -107 -177z"/>
<glyph glyph-name="hyphen" unicode="-" horiz-adv-x="302" d="M266 271h-230v34h230v-34z"/>
<glyph glyph-name="period" unicode="." horiz-adv-x="207" d="M103 130q29 0 48 -19t19 -48t-19 -48t-48 -19q-28 0 -47 19t-19 48t19 48t47 19z"/>
<glyph glyph-name="slash" unicode="/" horiz-adv-x="347" d="M346 750l-308 -850h-37l308 850h37z"/>
<glyph glyph-name="zero" unicode="0" horiz-adv-x="656" d="M45 350q0 162 78 259q79 97 205 97t204 -97q79 -97 79 -259q0 -163 -79 -260q-78 -96 -204 -96q-127 0 -205 96q-78 98 -78 260zM218 604q-41 -87 -41 -254t41 -255q41 -86 110 -86t110 86q41 88 41 255t-41 254q-40 87 -110 87t-110 -87z"/>
<glyph glyph-name="one" unicode="1" horiz-adv-x="372" d="M337 0h-295v12l85 19v628h-96v16l207 32l14 -14v-662l85 -19v-12z"/>
<glyph glyph-name="two" unicode="2" horiz-adv-x="533" d="M499 0h-467v45q143 134 198 197q134 158 136 306q0 68 -30.5 104.5t-86.5 36.5q-41 0 -75 -25v-99q0 -36 -19.5 -56.5t-52.5 -20.5q-31 0 -50.5 19t-19.5 52q0 65 64 105t162 40q112 0 173.5 -46t61.5 -132q0 -94 -77 -192q-27 -34 -88 -89q-46 -41 -100 -82 q-22 -17 -115 -82h329l39 96h18v-177z"/>
<glyph glyph-name="three" unicode="3" horiz-adv-x="599" d="M203 664v-94q0 -35 -19.5 -55.5t-51.5 -20.5q-31 0 -50.5 19t-19.5 52q0 46 39 79q72 62 200 62q103 0 164 -48t61 -130q0 -66 -42 -109.5t-119 -59.5q89 -15 139 -61.5t50 -117.5q0 -85 -69 -136q-68 -50 -182 -50q-57 0 -113 14q-58 15 -95.5 48.5t-37.5 78.5 q0 32 19.5 51t50.5 19q32 0 51.5 -20.5t19.5 -55.5v-93q34 -22 82 -22q67 0 107 43t40 122q0 169 -183 169h-43v22h42q156 0 156 160q0 76 -31.5 115.5t-86.5 39.5q-45 0 -78 -21z"/>
<glyph glyph-name="four" unicode="4" horiz-adv-x="588" d="M534 0h-245v12l60 19v119h-304v15q87 162 128 282q43 122 43 253h126q0 -141 -69 -263q-65 -118 -203 -266h279v226l110 110l15 -14v-322h71v-21h-71v-119l60 -19v-12z"/>
<glyph glyph-name="five" unicode="5" horiz-adv-x="559" d="M188 121v-89q37 -22 73 -22q63 0 97.5 51.5t34.5 142.5q0 97 -43 149.5t-128 52.5q-71 0 -120 -37l-12 13l28 316q217 0 350 17v-98h-316l-46 -226q68 43 164 43q121 0 186 -58t65 -161t-67 -161.5t-188 -58.5q-90 0 -155 34q-65 35 -65 97q0 33 19.5 52t50.5 19 q33 0 52.5 -20t19.5 -56z"/>
<glyph glyph-name="six" unicode="6" horiz-adv-x="592" d="M171 375q53 48 143 48q106 0 170 -58q65 -59 65 -155q0 -98 -66 -157q-65 -58 -174 -58q-128 0 -197.5 84t-69.5 230q0 181 108.5 281t311.5 115l10 -10q-147 -30 -218 -109t-83 -211zM170 327q0 -139 32 -229q31 -88 98 -88q56 0 89 54t33 147q0 89 -35.5 140t-95.5 51 q-40 0 -72.5 -20t-48.5 -55z"/>
<glyph glyph-name="seven" unicode="7" horiz-adv-x="551" d="M304 0h-126q0 143 68 268q31 57 65 110l74 116q44 69 68 123h-345l-45 -96h-17v179h452v-15q-24 -75 -79 -215q-58 -147 -87 -257q-28 -106 -28 -213z"/>
<glyph glyph-name="eight" unicode="8" horiz-adv-x="581" d="M505 544q0 -108 -118 -160q79 -32 115.5 -74t36.5 -113q0 -96 -64.5 -149.5t-196.5 -53.5q-116 0 -176 44t-60 123q0 63 38 105t112 73q-64 28 -93.5 66.5t-29.5 104.5q0 91 57 143.5t172 52.5q100 0 153.5 -43t53.5 -119zM277 308q-55 18 -59 20q-39 -26 -57 -61 t-18 -93q0 -164 147 -164q74 0 114.5 38t40.5 106q0 52 -28 85q-11 13 -36 27q-37 20 -104 42zM314 412l33 -12q63 49 63 137q0 74 -31.5 113.5t-91.5 39.5q-58 0 -92.5 -36t-34.5 -95q0 -58 34 -88q36 -29 120 -59z"/>
<glyph glyph-name="nine" unicode="9" horiz-adv-x="589" d="M416 325q-50 -47 -139 -47q-105 0 -170 56q-65 57 -65 153q0 100 67 158q68 60 178 60q126 0 193 -81.5t67 -228.5q0 -193 -115 -290q-113 -95 -320 -109l-10 10q165 27 234 105q70 79 80 214zM419 373q0 93 -12 160q-12 71 -41.5 114t-73.5 43q-58 0 -92.5 -55.5 t-34.5 -149.5q0 -86 36 -136.5t95 -50.5q86 0 123 75z"/>
<glyph glyph-name="colon" unicode=":" horiz-adv-x="207" d="M103 130q29 0 48 -19t19 -48t-19 -48t-48 -19q-28 0 -47 19t-19 48t19 48t47 19zM103 370q-28 0 -47 19t-19 48t18.5 48t47.5 19t48 -19t19 -48t-19 -48t-48 -19z"/>
<glyph glyph-name="semicolon" unicode=";" horiz-adv-x="207" d="M63 -119l-12 12q22 22 39 51t17 45q0 7 -4 11q-29 0 -47.5 18t-18.5 47q0 28 18.5 46.5t47.5 18.5q30 0 48.5 -19.5t18.5 -52.5q0 -70 -107 -177zM103 370q-28 0 -47 19t-19 48t18.5 48t47.5 19t48 -19t19 -48t-19 -48t-48 -19z"/>
<glyph glyph-name="less" unicode="&lt;" horiz-adv-x="452" d="M47 288l343 160l15 -31l-304 -142l304 -142l-15 -30l-343 160v25z"/>
<glyph glyph-name="equal" unicode="=" horiz-adv-x="452" d="M416 355h-380v34h380v-34zM416 211h-380v34h380v-34z"/>
<glyph glyph-name="greater" unicode="&gt;" horiz-adv-x="452" d="M351 275l-304 142l15 31l343 -160v-25l-343 -160l-15 30z"/>
<glyph glyph-name="question" unicode="?" horiz-adv-x="515" d="M266 203h-25q-9 66 -2 101t27 67q20 33 39 53q50 52 50 134q0 60 -29.5 95.5t-82.5 35.5q-35 0 -69 -23v-96q0 -36 -19.5 -56t-52.5 -20q-31 0 -50.5 19t-19.5 52q0 63 63 101q64 38 155 38q109 0 170.5 -44t61.5 -123q0 -38 -16 -70t-40 -53t-52 -44.5t-52 -44.5 t-40 -52.5t-16 -69.5zM256 -4q-29 0 -48 19t-19 48t19.5 48t47.5 19t47 -19t19 -48t-19 -48t-47 -19z"/>
<glyph glyph-name="at" unicode="@" horiz-adv-x="895" d="M770 -41l12 -12q-52 -51 -136 -78.5t-186 -27.5q-194 0 -305 96q-110 96 -110 264q0 163 107 258q106 94 307 94q198 0 294 -90q97 -90 97 -240q0 -109 -51.5 -168.5t-148.5 -59.5q-98 0 -118 57l-2 2q-56 -59 -135 -59q-78 0 -120.5 55t-42.5 149q0 109 59.5 166.5 t170.5 57.5q55 0 112 -19l49 21l15 -14v-351q0 -42 32 -42q35 0 56 51.5t21 138.5q0 163 -71 242.5t-218 79.5q-150 0 -229.5 -84.5t-79.5 -238.5q0 -159 87 -246t260 -87q85 0 158 22t116 63zM529 73v315q-42 20 -71 20q-114 0 -114 -195q0 -82 27.5 -132.5t74.5 -50.5 q46 0 83 43z"/>
<glyph glyph-name="A" unicode="A" horiz-adv-x="761" d="M369 700h38l283 -669l64 -19v-12h-263v12l65 19l-81 196h-290l-85 -196l89 -19v-12h-183v12l70 19zM465 249l-132 320l-139 -320h271z"/>
<glyph glyph-name="B" unicode="B" horiz-adv-x="668" d="M17 690v10h333q110 0 178 -47t68 -127q0 -64 -43.5 -108t-120.5 -59q89 -14 140 -61t51 -115q0 -85 -75 -134q-74 -49 -198 -49h-333v10l65 16v648zM212 348v-326h115q77 0 120.5 41.5t43.5 120.5q0 80 -44 122t-120 42h-115zM327 678h-115v-308h115q64 0 100.5 39.5 t36.5 114.5t-36.5 114.5t-100.5 39.5z"/>
<glyph glyph-name="C" unicode="C" horiz-adv-x="701" d="M642 108l12 -12q-100 -102 -261 -102q-159 0 -254 96q-94 95 -94 260q0 164 94 259q94 97 250 97q124 0 203 -56l49 26l10 -10v-144h-18q-25 98 -98 131q-59 28 -120 28q-112 0 -173 -83t-61 -243q0 -155 65 -240t194 -85q127 0 202 78z"/>
<glyph glyph-name="D" unicode="D" horiz-adv-x="734" d="M17 690v10h329q153 0 248 -95t95 -255q0 -162 -95 -257q-94 -93 -248 -93h-329v10l65 16v648zM346 678h-134v-656h134q97 0 152 84t55 243q0 160 -55 244.5t-152 84.5z"/>
<glyph glyph-name="E" unicode="E" d="M212 350v-328h295l52 106h17v-128h-559v10l65 16v648l-65 16v10h549v-128h-17l-52 106h-285v-306h230l23 82h16v-185h-16l-23 81h-230z"/>
<glyph glyph-name="F" unicode="F" horiz-adv-x="599" d="M443 269l-23 81h-208v-319l95 -19v-12h-290v12l65 19v643l-65 16v10h535v-128h-18l-51 106h-271v-306h208l23 82h16v-185h-16z"/>
<glyph glyph-name="G" unicode="G" horiz-adv-x="750" d="M733 327l-63 -20v-274l-14 -14l-64 23q-84 -48 -196 -48q-162 0 -257 95q-94 95 -94 260q0 163 95 260q94 97 252 97q125 0 204 -56l49 26l10 -10v-144h-17q-12 47 -38.5 81.5t-60.5 49.5q-60 28 -122 28q-115 0 -175.5 -84t-60.5 -249q0 -150 58 -238q59 -89 173 -89 q76 0 128 38v248l-65 20v12h258v-12z"/>
<glyph glyph-name="H" unicode="H" horiz-adv-x="758" d="M17 0v12l65 19v637l-65 20v12h260v-12l-65 -20v-301h334v301l-65 20v12h260v-12l-65 -20v-637l65 -19v-12h-260v12l65 19v314h-334v-314l65 -19v-12h-260z"/>
<glyph glyph-name="I" unicode="I" horiz-adv-x="294" d="M273 688l-62 -20v-637l62 -19v-12h-255v12l65 19v637l-65 20v12h255v-12z"/>
<glyph glyph-name="J" unicode="J" horiz-adv-x="294" d="M83 21v647l-65 20v12h255v-12l-63 -20v-647q0 -73 -43 -126t-135 -100l-11 11q62 92 62 215z"/>
<glyph glyph-name="K" unicode="K" horiz-adv-x="707" d="M274 688l-65 -20v-344l326 344l-84 20v12h188v-12l-73 -20l-202 -214l272 -425l59 -17v-12h-183l-236 367l-67 -72v-264l65 -19v-12h-260v12l65 19v637l-65 20v12h260v-12z"/>
<glyph glyph-name="L" unicode="L" horiz-adv-x="592" d="M212 668v-646h260l52 106h17v-128h-524v10l65 16v642l-65 20v12h260v-12z"/>
<glyph glyph-name="M" unicode="M" horiz-adv-x="934" d="M877 688l-62 -20l45 -637l62 -19v-12h-257v12l65 19l-40 564l-254 -595h-38l-258 596l-41 -567l62 -19v-10h-149v10l65 19l45 639l-65 20v12h172l242 -569l241 569h165v-12z"/>
<glyph glyph-name="N" unicode="N" horiz-adv-x="697" d="M17 0v10l65 19v639l-65 20v12h199l377 -522v493l-65 19v10h152v-10l-65 -19v-671h-36l-475 657v-628l65 -19v-10h-152z"/>
<glyph glyph-name="O" unicode="O" horiz-adv-x="768" d="M45 350q0 162 94 259t245 97t245 -97t94 -259q0 -163 -94 -260q-93 -96 -245 -96t-246 96q-93 98 -93 260zM236 604q-55 -86 -55 -255t55 -254q56 -86 148 -86q93 0 147 86q55 85 55 254t-55 255q-54 87 -147 87q-92 0 -148 -87z"/>
<glyph glyph-name="P" unicode="P" horiz-adv-x="632" d="M300 678h-88v-647l102 -19v-12h-297v12l65 19v643l-65 16v10h298q122 0 197 -54q76 -54 76 -147t-76 -147q-75 -54 -197 -54h-74l-14 15v7h73q73 0 114.5 46.5t41.5 132.5t-41.5 132.5t-114.5 46.5z"/>
<glyph glyph-name="Q" unicode="Q" horiz-adv-x="768" d="M760 -64l9 -9q-58 -58 -151 -58q-76 0 -137 32l-51 27q-13 6 -57 38l-47 34q-128 16 -205 110q-76 94 -76 239q0 163 94 260t245 97t245 -97t94 -259q0 -136 -67 -225q-66 -90 -179 -117q31 -11 97 -53q70 -43 111 -43q53 0 75 24zM181 349q0 -164 54 -248.5t149 -84.5 t148.5 84.5t53.5 248.5q0 165 -53.5 253.5t-148.5 88.5t-149 -88.5t-54 -253.5z"/>
<glyph glyph-name="R" unicode="R" horiz-adv-x="678" d="M585 510q0 -72 -47 -120t-130 -61q39 -13 73 -73l126 -227l60 -17v-12h-178l-177 323h-100v-292l65 -19v-12h-260v12l65 19v643l-65 16v10h312q115 0 186 -51q70 -51 70 -139zM314 678h-102v-333h102q65 0 102 43t37 123q0 81 -37 124t-102 43z"/>
<glyph glyph-name="S" unicode="S" horiz-adv-x="593" d="M62 9l-10 10v148h18q24 -95 93 -130q60 -28 116 -28q79 0 123.5 39t44.5 107q0 62 -37 87q-36 25 -131 54l-49 15q-6 2 -45 16q-28 10 -44 20q-48 31 -64 59q-24 44 -24 97q0 93 61 148t175 55q95 0 168 -45l46 29l10 -10v-147h-18q-12 47 -35 80t-51 49t-53.5 22.5 t-51.5 6.5q-68 0 -108.5 -37t-40.5 -98q0 -59 44 -87q28 -16 45 -23q38 -14 67 -22q33 -10 52 -18q64 -20 94 -42q54 -38 67 -63q25 -46 25 -98q0 -96 -66 -152.5t-193 -56.5q-103 0 -181 45z"/>
<glyph glyph-name="T" unicode="T" horiz-adv-x="679" d="M632 572l-52 106h-176v-647l65 -19v-12h-260v12l65 19v647h-176l-51 -106h-17v128h619v-128h-17z"/>
<glyph glyph-name="U" unicode="U" horiz-adv-x="723" d="M706 690l-65 -19v-411q0 -123 -77 -195q-77 -71 -201 -71q-126 0 -204 72q-77 72 -77 194v408l-65 20v12h260v-12l-65 -20v-408q0 -104 54.5 -162t145.5 -58q94 0 150.5 59t56.5 161v411l-65 19v10h152v-10z"/>
<glyph glyph-name="V" unicode="V" horiz-adv-x="761" d="M399 0h-38l-290 668l-65 20v12h264v-12l-65 -20l229 -537l227 537l-89 20v12h182v-12l-69 -20z"/>
<glyph glyph-name="W" unicode="W" horiz-adv-x="1199" d="M847 0h-38l-212 503l-206 -503h-38l-282 668l-65 20v12h264v-12l-65 -20l221 -537l160 399l-59 138l-64 20v12h263v-12l-65 -20l221 -537l217 537l-89 20v12h183v-12l-70 -20z"/>
<glyph glyph-name="X" unicode="X" horiz-adv-x="745" d="M470 12l66 19l-208 295l-216 -295l85 -19v-12h-183v12l73 19l228 312l-229 325l-61 20v12h260v-12l-65 -20l190 -271l189 271l-85 20v12h183v-12l-73 -20l-201 -289l246 -348l62 -19v-12h-261v12z"/>
<glyph glyph-name="Y" unicode="Y" horiz-adv-x="728" d="M270 688l-65 -20l208 -337l212 337l-85 20v12h182v-12l-73 -20l-226 -362v-275l63 -19v-12h-258v12l65 19v275l-225 362l-62 20v12h264v-12z"/>
<glyph glyph-name="Z" unicode="Z" horiz-adv-x="614" d="M582 0h-545v15l401 663h-321l-54 -106h-17v128h528v-15l-400 -663h336l54 106h18v-128z"/>
<glyph glyph-name="bracketleft" unicode="[" horiz-adv-x="299" d="M282 738l-112 -20v-887l112 -19v-12h-225v950h225v-12z"/>
<glyph glyph-name="backslash" unicode="\" horiz-adv-x="347" d="M38 750l308 -850h-37l-308 850h37z"/>
<glyph glyph-name="bracketright" unicode="]" horiz-adv-x="299" d="M16 -188l113 19v887l-113 20v12h226v-950h-226v12z"/>
<glyph glyph-name="asciicircum" unicode="^" horiz-adv-x="396" d="M30 507l159 198h18l159 -198l-10 -11l-158 125l-158 -125z"/>
<glyph glyph-name="underscore" unicode="_" horiz-adv-x="631" d="M630 -84h-629v34h629v-34z"/>
<glyph glyph-name="grave" unicode="`" horiz-adv-x="280" d="M37 641l67 67l139 -150l-11 -11z"/>
<glyph glyph-name="a" unicode="a" horiz-adv-x="559" d="M360 62l-3 3q-74 -71 -178 -71q-66 0 -100 30t-34 86q0 63 50 97q21 16 63 28q40 13 81 21q85 16 105 19q2 0 5 0.5t5 1t3 0.5v96q0 52 -25 83t-70 31q-34 0 -65 -19v-82q0 -35 -19 -55.5t-50 -20.5q-30 0 -49 19t-19 51q0 59 61 90q61 33 143 33q103 0 160.5 -42 t57.5 -111v-303q0 -23 23 -23q21 0 32 11l8 -8q-29 -29 -104 -29q-38 0 -57.5 14.5t-23.5 49.5zM357 88v174q-104 -16 -136 -32q-49 -33 -50 -106q0 -43 19.5 -66t54.5 -23q62 0 112 53z"/>
<glyph glyph-name="b" unicode="b" horiz-adv-x="590" d="M77 28v656l-60 13v13l171 17l14 -14v-213l-3 -63l3 -3q64 70 161 70q92 0 141 -65t49 -178q0 -266 -277 -266q-115 0 -199 33zM202 411v-384q51 -17 83 -17q69 0 105 60t36 173q0 99 -34 160q-33 61 -90 61q-56 0 -100 -53z"/>
<glyph glyph-name="c" unicode="c" horiz-adv-x="559" d="M370 378v89q-37 22 -73 22q-63 0 -98 -58.5t-35 -161.5q0 -116 44.5 -178t133.5 -62q82 0 144 60l11 -12q-83 -82 -205 -82t-188.5 67.5t-66.5 186.5q0 120 67.5 187.5t191.5 67.5q86 0 150 -34q65 -35 65 -97q0 -33 -19.5 -52t-50.5 -19q-32 0 -51.5 20.5t-19.5 55.5z "/>
<glyph glyph-name="d" unicode="d" horiz-adv-x="591" d="M514 713v-677l60 -14v-13l-171 -12l-14 14l3 51l-3 3q-64 -70 -161 -70q-92 0 -141.5 65t-49.5 178q0 127 64 196.5t180 69.5q55 0 108 -24v204l-60 13v13l170 17zM389 88v377q-47 24 -86 24q-67 0 -103 -60.5t-36 -173.5q0 -97 33 -159q34 -61 92 -61q56 0 100 53z"/>
<glyph glyph-name="e" unicode="e" horiz-adv-x="562" d="M515 265l-15 -15h-336q1 -220 186 -220q85 0 144 59l11 -12q-83 -82 -207 -82q-126 0 -194 68q-67 68 -67 181q0 118 71 189t183 71q99 0 164 -56t65 -144q0 -21 -5 -39zM296 489q-56 0 -92.5 -58.5t-39.5 -165.5l235 17q0 207 -103 207z"/>
<glyph glyph-name="f" unicode="f" horiz-adv-x="371" d="M17 488l60 19v60q0 75 47.5 116t141.5 41q62 0 105 -22q44 -23 44 -68q0 -26 -15 -42t-41 -16q-30 0 -48 20t-18 53v53q-15 7 -26 7q-31 0 -48 -38t-17 -104v-67h160v-22h-160v-447l90 -19v-12h-275v12l60 19v447h-60v10z"/>
<glyph glyph-name="g" unicode="g" horiz-adv-x="564" d="M518 488l-69 -21h-39q73 -43 73 -126q0 -73 -60 -116q-59 -43 -156 -43q-80 0 -133 29q-26 -32 -26 -63q0 -52 73 -52h167q174 0 174 -130q0 -169 -284 -169q-208 0 -208 88q0 60 94 105q-72 21 -72 101q0 35 15.5 62.5t53.5 64.5q-69 42 -69 123q0 73 59 117 q61 44 156 44q5 0 37 -2h214v-12zM362 -18h-176q-21 0 -26 1q-33 -39 -33 -77q0 -49 33.5 -70.5t102.5 -21.5q84 0 134.5 27.5t50.5 74.5q0 30 -21.5 48t-64.5 18zM170 342q0 -71 25.5 -108t71.5 -37q44 0 71 37q27 38 27 108t-27 108q-27 37 -71 37q-45 0 -71 -37.5 t-26 -107.5z"/>
<glyph glyph-name="h" unicode="h" d="M202 406v-375l51 -19v-12h-236v12l60 19v653l-60 13v13l171 17l14 -14v-213l-3 -68l3 -3q36 35 87.5 55t102.5 20q75 0 114.5 -46t39.5 -128v-299l60 -19v-12h-236v12l50 19v281q0 152 -90 152q-32 0 -68 -16t-60 -42z"/>
<glyph glyph-name="i" unicode="i" horiz-adv-x="279" d="M262 0h-245v12l60 19v433l-60 13v13l171 17l14 -14v-462l60 -19v-12zM212 640q0 -35 -22.5 -57.5t-56.5 -22.5q-53 -4 -73.5 49.5t15.5 86.5q23 23 58 23t57 -22.5t22 -56.5z"/>
<glyph glyph-name="j" unicode="j" horiz-adv-x="279" d="M77 21v443l-60 13v13l171 17l14 -14v-472q0 -72 -42.5 -125.5t-132.5 -100.5l-11 11q61 89 61 215zM212 640q0 -35 -22.5 -57.5t-56.5 -22.5q-53 -4 -73.5 49.5t15.5 86.5q23 23 58 23t57 -22.5t22 -56.5z"/>
<glyph glyph-name="k" unicode="k" horiz-adv-x="582" d="M573 0h-169l-150 258l-52 -56v-171l60 -19v-12h-245v12l60 19v653l-60 13v13l171 17l14 -14v-483l228 239l-78 19v12h177v-12l-68 -19l-122 -131l179 -309l55 -17v-12z"/>
<glyph glyph-name="l" unicode="l" horiz-adv-x="279" d="M262 0h-245v12l60 19v653l-60 13v13l171 17l14 -14v-682l60 -19v-12z"/>
<glyph glyph-name="m" unicode="m" horiz-adv-x="903" d="M202 404v-373l49 -19v-12h-234v12l60 19v433l-60 13v13l171 17l14 -14l-3 -61l3 -3q32 35 79.5 55t92.5 20q90 0 123 -79q36 36 88 57.5t101 21.5q70 0 105 -45.5t35 -128.5v-299l60 -19v-12h-234v12l49 19v281q0 152 -84 152q-66 0 -115 -55q12 -35 12 -79v-299l49 -19 v-12h-223v12l49 19v281q0 152 -80 152q-61 0 -107 -60z"/>
<glyph glyph-name="n" unicode="n" d="M202 406v-375l51 -19v-12h-236v12l60 19v433l-60 13v13l171 17l14 -14l-3 -61l3 -3q36 35 88 55t103 20q74 0 113.5 -46.5t39.5 -127.5v-299l60 -19v-12h-236v12l50 19v281q0 152 -94 152q-32 0 -66 -16t-58 -42z"/>
<glyph glyph-name="o" unicode="o" horiz-adv-x="585" d="M292 504q115 0 185 -70q71 -69 71 -185t-71 -185t-185 -69t-185 69q-70 69 -70 185t70 185q70 70 185 70zM164 249q0 -115 34.5 -177t93.5 -62q60 0 94 61.5t34 177.5t-33.5 178t-94.5 62q-59 0 -93.5 -62.5t-34.5 -177.5z"/>
<glyph glyph-name="p" unicode="p" horiz-adv-x="590" d="M292 -200h-275v12l60 19v633l-60 13v13l171 17l14 -14l-3 -56l3 -3q64 70 161 70q92 0 141 -65t49 -178q0 -127 -63.5 -196.5t-178.5 -69.5q-64 0 -109 24v-188l90 -19v-12zM202 411v-377q45 -24 86 -24q67 0 102.5 60.5t35.5 173.5q0 98 -34 159q-33 61 -90 61 q-58 0 -100 -53z"/>
<glyph glyph-name="q" unicode="q" horiz-adv-x="579" d="M514 493v-662l60 -19v-12h-245v12l60 19v169l3 62l-3 3q-64 -70 -161 -70q-92 0 -141.5 65t-49.5 177q0 131 69 199t202 68q67 0 133 -23l58 26zM389 88v377q-47 24 -86 24q-67 0 -103 -60.5t-36 -173.5q0 -97 33 -159q34 -61 92 -61q56 0 100 53z"/>
<glyph glyph-name="r" unicode="r" horiz-adv-x="501" d="M17 12l60 19v433l-60 13v13l171 17l14 -14l-3 -81l3 -3q15 26 21 33q51 62 119 62q52 0 87 -31t35 -81q0 -36 -18.5 -55.5t-50.5 -19.5q-33 0 -52.5 20.5t-19.5 56.5v80q-5 3 -14 3q-30 0 -58 -26q-27 -27 -37 -51l-12 -26v-343l90 -19v-12h-275v12z"/>
<glyph glyph-name="s" unicode="s" horiz-adv-x="457" d="M57 8l-10 10v111h22q29 -119 147 -119q56 0 89 26t33 69q0 44 -35 61q-33 17 -88 31l-50 15q-15 4 -43 18q-26 13 -40 27q-34 38 -34 96q0 71 45.5 111t136.5 40q73 0 129 -29l22 17l10 -10v-109h-22q-27 116 -135 116q-48 0 -76.5 -24.5t-28.5 -63.5q0 -34 23 -51.5 t84 -35.5l55 -18q19 -6 47 -21q30 -14 44 -29q37 -39 37 -99q0 -72 -50 -112t-151 -40q-78 0 -139 29z"/>
<glyph glyph-name="t" unicode="t" horiz-adv-x="397" d="M77 478h-61v10q104 25 172 131l14 -15v-104h161v-22h-161v-345q0 -103 80 -103q46 0 80 34l11 -11q-55 -58 -145 -58q-72 0 -111.5 37.5t-39.5 100.5v345z"/>
<glyph glyph-name="u" unicode="u" horiz-adv-x="618" d="M541 493v-457l60 -14v-13l-171 -12l-14 14l3 56l-3 3q-74 -75 -181 -75q-74 0 -116 42.5t-42 112.5v314l-60 13v13l171 17l14 -14v-324q0 -134 93 -134q70 0 121 58v371l-60 13v13l171 17z"/>
<glyph glyph-name="v" unicode="v" horiz-adv-x="602" d="M316 0h-33l-214 469l-60 19v12h249v-12l-60 -19l153 -341l153 341l-84 19v12h172v-12l-64 -19z"/>
<glyph glyph-name="w" unicode="w" horiz-adv-x="905" d="M637 0h-43l-140 334l-141 -334h-43l-201 469l-60 19v12h242v-12l-53 -19l143 -353l102 245l-46 108l-53 19v12h243v-12l-61 -19l137 -353l141 353l-84 19v12h173v-12l-65 -19z"/>
<glyph glyph-name="x" unicode="x" horiz-adv-x="591" d="M329 12l61 19l-139 191l-143 -191l80 -19v-12h-173v12l68 19l155 209l-162 229l-56 19v12h245v-12l-60 -19l128 -179l134 179l-80 19v12h173v-12l-68 -19l-145 -197l172 -241l56 -19v-12h-246v12z"/>
<glyph glyph-name="y" unicode="y" horiz-adv-x="602" d="M288 -12l-219 481l-60 19v12h249v-12l-60 -19l153 -341l153 341l-84 19v12h172v-12l-64 -19l-212 -469q-48 -106 -85 -156q-34 -46 -86 -46q-39 0 -65.5 19t-26.5 58q0 29 15 44.5t42 15.5t43 -16.5t16 -44.5v-39q6 -2 11 -2q22 0 45.5 35t62.5 120z"/>
<glyph glyph-name="z" unicode="z" horiz-adv-x="486" d="M451 0h-419v15l287 468h-222l-37 -96h-18v113h404v-15l-286 -468h237l37 96h17v-113z"/>
<glyph glyph-name="braceleft" unicode="{" horiz-adv-x="368" d="M98 275q68 -20 107 -82.5t39 -152.5q0 -111 24 -170.5t66 -59.5v-15q-92 0 -151 66q-57 66 -57 177q0 112 -23.5 170.5t-65.5 58.5v16q42 0 65.5 58.5t23.5 170.5q0 111 57 177q59 66 151 66v-15q-42 0 -66 -59.5t-24 -170.5q0 -92 -38.5 -153.5t-107.5 -81.5z"/>
<glyph glyph-name="bar" unicode="|" horiz-adv-x="188" d="M111 750v-950h-34v950h34z"/>
<glyph glyph-name="braceright" unicode="}" horiz-adv-x="368" d="M273 275q-69 20 -108 82t-39 153q0 112 -23.5 171t-65.5 59v15q93 0 150 -66t57 -177t24 -170t66 -59v-16q-42 0 -66 -59t-24 -170t-57 -177t-150 -66v15q42 0 65.5 59t23.5 171q0 90 39 152.5t108 82.5z"/>
<glyph glyph-name="asciitilde" unicode="~" horiz-adv-x="483" d="M41 237l-12 13q65 65 98 88q35 24 60 24q22 0 69 -26q46 -25 74 -25q25 0 57 14.5t55 37.5l12 -12q-115 -115 -164 -115q-20 0 -69 26t-76 26q-53 0 -104 -51z"/>
<glyph glyph-name="exclamdown" unicode="¡" horiz-adv-x="221" d="M98 500h25q12 -168 28 -318q16 -129 22 -164q8 -42 8 -51q0 -31 -20 -51t-51 -20q-30 0 -50 20t-20 51q0 15 7 51q27 160 51 482zM110 697q29 0 48 -19t19 -48t-19 -48t-48 -19q-28 0 -47 19.5t-19 47.5t19 47.5t47 19.5z"/>
<glyph glyph-name="cent" unicode="¢" horiz-adv-x="559" d="M294 -5v-45h-24v46q-113 6 -173 73t-60 180q0 114 60.5 180.5t172.5 73.5v47h24v-46h2q86 0 150 -34q65 -35 65 -97q0 -33 -19.5 -52t-50.5 -19q-32 0 -51.5 20.5t-19.5 55.5v89q-37 22 -74 22h-2v-455q20 -5 48 -5q82 0 144 60l11 -12q-82 -81 -203 -82zM160 269 q0 -184 110 -228v445q-53 -12 -81.5 -69t-28.5 -148z"/>
<glyph glyph-name="sterling" unicode="£" horiz-adv-x="579" d="M77 342h-61v10l61 12v114q0 106 61.5 166t173.5 60q83 0 145 -34q63 -34 63 -97q0 -33 -19 -52t-50 -19q-33 0 -52.5 20t-19.5 56v89q-31 22 -63 22q-54 0 -84 -51.5t-30 -139.5v-134h195v-22h-195q0 -131 -57 -254q45 24 76 24q28 0 88 -26q57 -25 93 -25q31 0 71 14 t72 38l12 -11q-142 -115 -206 -115q-28 0 -88 25q-63 26 -98 26q-66 0 -131 -50l-13 12l56 43v299z"/>
<glyph glyph-name="currency" unicode="¤" horiz-adv-x="508" d="M120 409l-70 71l24 24l70 -70q43 37 110 37q66 0 111 -36l69 69l25 -24l-70 -69q36 -45 36 -111q0 -67 -37 -111l71 -69l-25 -24l-70 70q-44 -35 -110 -35q-67 0 -109 36l-71 -71l-24 24l71 71q-35 44 -35 109q0 66 34 109zM124 300q0 -58 36 -94.5t94 -36.5 q60 0 96.5 36.5t36.5 94.5q0 60 -36.5 97t-96.5 37q-58 0 -94 -37t-36 -97z"/>
<glyph glyph-name="yen" unicode="¥" horiz-adv-x="728" d="M293 235h-124v34h124v37l-225 362l-62 20v12h264v-12l-65 -20l208 -337l212 337l-85 20v12h182v-12l-73 -20l-226 -362v-37h125v-34h-125v-86h125v-34h-125v-84l63 -19v-12h-258v12l65 19v84h-124v34h124v86z"/>
<glyph glyph-name="brokenbar" unicode="¦" horiz-adv-x="188" d="M77 750h34v-425h-34v425zM111 225v-425h-34v425h34z"/>
<glyph glyph-name="section" unicode="§" horiz-adv-x="515" d="M87 439q-52 40 -52 102q0 75 61.5 119t168.5 44q91 0 153 -38t62 -101q0 -33 -19.5 -52t-50.5 -19q-33 0 -52.5 20t-19.5 56v96q-35 23 -68 23q-55 0 -86 -37t-31 -87q0 -41 24 -71t59.5 -46t77 -33t77 -32t59.5 -44t24 -69q0 -54 -45 -110q53 -41 53 -102 q0 -75 -62.5 -119t-170.5 -44q-90 0 -154 38q-63 37 -63 101q0 33 19.5 52t50.5 19q33 0 52.5 -20t19.5 -56v-96q35 -23 70 -23q55 0 87.5 36t32.5 89q0 45 -31.5 78t-83.5 52q-11 4 -39.5 14t-42.5 16t-38 16.5t-36.5 20.5t-27 24.5t-20 31.5t-5.5 37q0 61 47 114zM412 172 q11 30 11 51q0 49 -51 81q-54 33 -140 64q-83 29 -128 58q-12 -27 -12 -55q0 -35 33 -65t82 -47q74 -27 107 -40q61 -24 98 -47z"/>
<glyph glyph-name="dieresis" unicode="¨" horiz-adv-x="279" d="M-44 623q0 31 19.5 51t50.5 20t50.5 -20t19.5 -51q0 -30 -19.5 -50t-50.5 -20t-50.5 20t-19.5 50zM183 623q0 31 19.5 51t50.5 20t50.5 -20t19.5 -51q0 -30 -19.5 -50t-50.5 -20t-50.5 20t-19.5 50z"/>
<glyph glyph-name="copyright" unicode="©" horiz-adv-x="792" d="M145 99q-104 104 -104 251t104 251t251 104t251 -104t104 -251t-104 -251t-251 -104t-251 104zM396 36q130 0 222 92t92 222t-92 222t-222 92q-129 0 -223 -92q-92 -92 -92 -222t92 -222t223 -92zM527 230l6 -6q-49 -52 -130 -52t-129 48q-47 49 -47 130t47.5 129.5 t125.5 48.5q62 0 100 -26l26 13l5 -5v-74h-8q-21 79 -108 79q-112 0 -112 -161q0 -162 126 -162q60 0 98 38z"/>
<glyph glyph-name="ordfeminine" unicode="ª" horiz-adv-x="294" d="M183 481l-2 2q-36 -36 -88 -36q-67 0 -67 58q0 43 49 61q29 9 106 23v49q0 25 -11.5 40.5t-32.5 15.5q-15 0 -29 -9v-41q3 -32 -26 -40q-27 -7 -42 12q-8 10 -6 24q0 29 30 45t74 16q53 0 83 -21.5t30 -55.5v-150q0 -11 11 -11q12 0 17 5l4 -4q-17 -15 -58 -15 q-37 0 -42 32zM181 495v86q-42 -6 -64 -16q-21 -11 -21 -52q0 -43 34 -43q29 0 51 25z"/>
<glyph glyph-name="guillemotleft" unicode="«" horiz-adv-x="413" d="M203 115l-170 156v18l170 155l10 -10l-96 -154l96 -154zM360 115l-170 156v18l170 155l11 -10l-97 -154l97 -154z"/>
<glyph glyph-name="logicalnot" unicode="¬" horiz-adv-x="502" d="M432 333h-396v34h430v-134h-34v100z"/>
<glyph glyph-name="uni00AD" unicode="­" horiz-adv-x="302" d="M266 283h-230v34h230v-34z"/>
<glyph glyph-name="registered" unicode="®" horiz-adv-x="792" d="M145 99q-104 104 -104 251t104 251t251 104t251 -104t104 -251t-104 -251t-251 -104t-251 104zM396 36q130 0 222 92t92 222t-92 222t-222 92q-129 0 -223 -92q-92 -92 -92 -222t92 -222t223 -92zM533 440q0 -35 -23 -59t-64 -31q22 -7 37 -37l62 -112l30 -9v-7h-97 l-86 161h-46v-144l33 -10v-7h-137v7l33 10v319l-33 9v5h159q60 0 96 -25.5t36 -69.5zM394 523h-48v-165h48q65 0 65 83q0 82 -65 82z"/>
<glyph glyph-name="overscore" unicode="¯" horiz-adv-x="302" d="M279 593h-256v34h256v-34z"/>
<glyph glyph-name="degree" unicode="°" horiz-adv-x="256" d="M32 608q0 43 26.5 70t68.5 27q43 0 70 -26.5t27 -70.5q0 -42 -27 -69t-70 -27q-42 0 -68.5 27t-26.5 69zM87 652q-14 -17 -14 -44t14 -44q15 -16 40 -16t40 16q16 17 16 44t-16 44q-15 17 -40 17t-40 -17z"/>
<glyph glyph-name="plusminus" unicode="±" horiz-adv-x="452" d="M209 333h-173v34h173v173h34v-173h173v-34h-173v-173h-34v173zM416 50h-380v34h380v-34z"/>
<glyph glyph-name="twosuperior" unicode="²" horiz-adv-x="278" d="M257 350h-237v25l52 49l41 44q29 34 39 52q32 53 32 105q0 69 -54 69q-17 0 -33 -11v-49q0 -42 -39 -42q-17 0 -27.5 10t-10.5 28q0 32 32.5 52t81.5 20q58 0 89.5 -23t31.5 -66q0 -54 -44.5 -101.5t-147.5 -116.5h163l22 49h9v-94z"/>
<glyph glyph-name="threesuperior" unicode="³" horiz-adv-x="312" d="M111 683v-48q0 -42 -38 -42q-17 0 -27.5 10.5t-10.5 28.5q0 35 38 53q39 18 84 18q53 0 84 -24t31 -65q0 -68 -81 -85q45 -7 69.5 -30t24.5 -59q0 -43 -34.5 -68t-92.5 -25q-48 0 -87 18t-39 53q0 18 10.5 28t27.5 10q18 0 28.5 -11t10.5 -30v-48q16 -10 36 -10 q31 0 50.5 22t19.5 61q0 84 -89 84h-20v11h20q75 0 75 80q0 77 -55 77q-22 0 -35 -9z"/>
<glyph glyph-name="acute" unicode="´" horiz-adv-x="280" d="M48 547l-11 11l139 150l67 -67z"/>
<glyph glyph-name="mu" unicode="µ" horiz-adv-x="618" d="M77 -97v561l-60 13v13l171 17l14 -14v-324q0 -134 93 -134q70 0 121 58v371l-60 13v13l171 17l14 -14v-457l60 -14v-13l-171 -12l-14 14l3 56l-3 3q-68 -75 -167 -75q-64 0 -100 41q9 -35 20 -67.5t16.5 -47t4.5 -18.5q0 -25 -16 -41t-41 -16q-24 0 -40 16t-16 41z"/>
<glyph glyph-name="paragraph" unicode="¶" horiz-adv-x="500" d="M340 53v155q-133 0 -214 66q-81 68 -81 180q0 113 81 179q80 67 214 67h144v-12l-60 -20v-615q0 -82 -43 -143.5t-132 -114.5l-12 11q56 56 79.5 113.5t23.5 133.5z"/>
<glyph glyph-name="middot" unicode="·" horiz-adv-x="207" d="M103 233q-28 0 -47 19t-19 48t18.5 48t47.5 19t48 -19t19 -48t-19 -48t-48 -19z"/>
<glyph glyph-name="cedilla" unicode="¸" horiz-adv-x="184" d="M24 -113l65 113h18l-27 -49q88 0 88 -47q0 -50 -100 -138l-7 8q44 42 44 79q0 20 -17.5 27t-63.5 7z"/>
<glyph glyph-name="onesuperior" unicode="¹" horiz-adv-x="201" d="M180 350h-155v7l42 10v311h-47v9l110 17l7 -8v-329l43 -10v-7z"/>
<glyph glyph-name="ordmasculine" unicode="º" horiz-adv-x="302" d="M22 575q0 57 36 92t93 35t93 -35t36 -92q0 -58 -35.5 -92.5t-93.5 -34.5t-93.5 34.5t-35.5 92.5zM93 575q0 -120 58 -120t58 120t-58 120t-58 -120z"/>
<glyph glyph-name="guillemotright" unicode="»" horiz-adv-x="413" d="M211 444l170 -155v-18l-170 -156l-11 11l96 154l-96 154zM53 444l170 -155v-18l-170 -156l-10 11l96 154l-96 154z"/>
<glyph glyph-name="onequarter" unicode="¼" horiz-adv-x="584" d="M552 0h-130v7l30 10v58h-147v7q44 84 63.5 144.5t19.5 123.5h70q0 -68 -33 -128t-107 -136h134v106l63 62l7 -8v-160h35v-11h-35v-58l30 -10v-7zM179 350h-154v7l41 10v311h-46v9l109 17l7 -8v-329l43 -10v-7zM455 700l-305 -700h-36l304 700h37z"/>
<glyph glyph-name="onehalf" unicode="½" horiz-adv-x="624" d="M179 350h-154v7l41 10v311h-46v9l109 17l7 -8v-329l43 -10v-7zM455 700l-305 -700h-36l304 700h37zM598 0h-235v25l64 62q9 9 47 55q51 61 51 133q0 69 -52 69q-18 0 -34 -11v-49q0 -42 -38 -42q-17 0 -27.5 10t-10.5 28q0 32 32.5 52t81.5 20q57 0 88 -23t31 -66 q0 -60 -59 -116q-33 -31 -57 -50q-25 -20 -73 -52h161l21 49h9v-94z"/>
<glyph glyph-name="threequarters" unicode="¾" horiz-adv-x="659" d="M107 683v-48q0 -42 -38 -42q-17 0 -27 10.5t-10 28.5q0 35 38 53t84 18q53 0 84 -24t31 -65q0 -68 -80 -85q45 -7 69.5 -30t24.5 -59q0 -43 -35 -68t-94 -25q-47 0 -86 18t-39 53q0 38 38 38q17 0 27.5 -11t10.5 -30v-48q16 -10 37 -10q31 0 50.5 22t19.5 61q0 84 -87 84 h-21v11h21q74 0 74 80q0 77 -56 77q-21 0 -36 -9zM625 0h-130v7l30 10v58h-147v7q44 86 63.5 146.5t19.5 121.5h70q0 -68 -33 -128t-107 -136h134v106l62 62l8 -8v-160h35v-11h-35v-58l30 -10v-7zM527 700l-305 -700h-36l305 700h36z"/>
<glyph glyph-name="questiondown" unicode="¿" horiz-adv-x="515" d="M249 500h24q9 -77 1 -122q-8 -46 -26 -82q-21 -41 -39 -64q-49 -65 -49 -163q0 -71 30 -114.5t82 -43.5q34 0 69 23v96q0 35 19.5 55.5t51.5 20.5q31 0 50.5 -19t19.5 -52q0 -63 -63 -101q-62 -38 -153 -38q-110 0 -172 53.5t-62 147.5q0 98 77 168q4 4 23 21t25 23 l22.5 22.5t23 27t17.5 28.5t16 33.5t9 36.5t4 43zM326 630q0 -28 -19 -47.5t-48 -19.5q-28 0 -47 19t-19 48t19 48t47 19q29 0 48 -19t19 -48z"/>
<glyph glyph-name="Agrave" unicode="À" horiz-adv-x="761" d="M369 700h38l283 -669l64 -19v-12h-263v12l65 19l-81 196h-290l-85 -196l89 -19v-12h-183v12l70 19zM465 249l-132 320l-139 -320h271zM263 824l67 68l139 -150l-11 -11z"/>
<glyph glyph-name="Aacute" unicode="Á" horiz-adv-x="761" d="M369 700h38l283 -669l64 -19v-12h-263v12l65 19l-81 196h-290l-85 -196l89 -19v-12h-183v12l70 19zM465 249l-132 320l-139 -320h271zM314 731l-11 11l139 150l67 -68z"/>
<glyph glyph-name="Acircumflex" unicode="Â" horiz-adv-x="761" d="M369 700h38l283 -669l64 -19v-12h-263v12l65 19l-81 196h-290l-85 -196l89 -19v-12h-183v12l70 19zM465 249l-132 320l-139 -320h271zM241 742l135 150h19l135 -150l-10 -11l-135 76l-133 -76z"/>
<glyph glyph-name="Atilde" unicode="Ã" horiz-adv-x="761" d="M369 700h38l283 -669l64 -19v-12h-263v12l65 19l-81 196h-290l-85 -196l89 -19v-12h-183v12l70 19zM465 249l-132 320l-139 -320h271zM222 758l-13 12q54 54 83 74.5t50 20.5q19 0 57 -23q40 -23 62 -23q46 0 91 45l13 -12q-97 -97 -138 -97q-16 0 -57 23t-64 23 q-41 0 -84 -43z"/>
<glyph glyph-name="Adieresis" unicode="Ä" horiz-adv-x="761" d="M369 700h38l283 -669l64 -19v-12h-263v12l65 19l-81 196h-290l-85 -196l89 -19v-12h-183v12l70 19zM465 249l-132 320l-139 -320h271zM202 807q0 31 19.5 50.5t50.5 19.5q30 0 50 -19.5t20 -50.5q0 -30 -20 -50t-50 -20q-31 0 -50.5 20t-19.5 50zM429 807q0 31 19.5 50.5 t50.5 19.5q30 0 50 -19.5t20 -50.5q0 -30 -20 -50t-50 -20q-31 0 -50.5 20t-19.5 50z"/>
<glyph glyph-name="Aring" unicode="Å" horiz-adv-x="761" d="M369 700h38l283 -669l64 -19v-12h-263v12l65 19l-81 196h-290l-85 -196l89 -19v-12h-183v12l70 19zM465 249l-132 320l-139 -320h271zM301 809q0 36 23.5 58.5t60.5 22.5q39 0 62.5 -22t23.5 -59q0 -38 -23.5 -60t-62.5 -22q-37 0 -60.5 22t-23.5 60zM385 749q19 0 30 16 t11 44t-11 44t-30 16q-18 0 -29 -16.5t-11 -43.5t11 -43.5t29 -16.5z"/>
<glyph glyph-name="AE" unicode="Æ" horiz-adv-x="839" d="M351 10l65 16l-33 201h-201l-82 -196l89 -19v-12h-183v12l70 19l286 669h419v-128h-17l-51 106h-283l51 -306h176l23 82h16v-185h-16l-23 81h-172l55 -328h183l51 106h17v-128h-440v10zM380 249l-53 320l-135 -320h188z"/>
<glyph glyph-name="Ccedilla" unicode="Ç" horiz-adv-x="701" d="M325 -113l61 107q-157 1 -249 97q-92 97 -92 259q0 164 94 259q94 97 250 97q124 0 203 -56l49 26l10 -10v-144h-18q-25 98 -98 131q-59 28 -120 28q-112 0 -173 -83t-61 -243q0 -155 65 -240t194 -85q127 0 202 78l12 -12q-96 -98 -249 -102l-24 -43q88 0 88 -47 q0 -50 -100 -138l-7 8q44 42 44 79q0 20 -17.5 27t-63.5 7z"/>
<glyph glyph-name="Egrave" unicode="È" d="M212 350v-328h295l52 106h17v-128h-559v10l65 16v648l-65 16v10h549v-128h-17l-52 106h-285v-306h230l23 82h16v-185h-16l-23 81h-230zM189 824l66 68l139 -150l-11 -11z"/>
<glyph glyph-name="Eacute" unicode="É" d="M212 350v-328h295l52 106h17v-128h-559v10l65 16v648l-65 16v10h549v-128h-17l-52 106h-285v-306h230l23 82h16v-185h-16l-23 81h-230zM239 731l-10 11l138 150l67 -68z"/>
<glyph glyph-name="Ecircumflex" unicode="Ê" d="M212 350v-328h295l52 106h17v-128h-559v10l65 16v648l-65 16v10h549v-128h-17l-52 106h-285v-306h230l23 82h16v-185h-16l-23 81h-230zM167 742l135 150h19l135 -150l-11 -11l-134 76l-133 -76z"/>
<glyph glyph-name="Edieresis" unicode="Ë" d="M212 350v-328h295l52 106h17v-128h-559v10l65 16v648l-65 16v10h549v-128h-17l-52 106h-285v-306h230l23 82h16v-185h-16l-23 81h-230zM128 807q0 31 20 50.5t50 19.5q31 0 51 -19.5t20 -50.5q0 -30 -20 -50t-51 -20q-30 0 -50 20t-20 50zM355 807q0 31 20 50.5t50 19.5 q31 0 51 -19.5t20 -50.5q0 -30 -20 -50t-51 -20q-30 0 -50 20t-20 50z"/>
<glyph glyph-name="Igrave" unicode="Ì" horiz-adv-x="294" d="M273 688l-62 -20v-637l62 -19v-12h-255v12l65 19v637l-65 20v12h255v-12zM24 824l67 68l138 -150l-10 -11z"/>
<glyph glyph-name="Iacute" unicode="Í" horiz-adv-x="294" d="M273 688l-62 -20v-637l62 -19v-12h-255v12l65 19v637l-65 20v12h255v-12zM75 731l-11 11l139 150l66 -68z"/>
<glyph glyph-name="Icircumflex" unicode="Î" horiz-adv-x="294" d="M273 688l-62 -20v-637l62 -19v-12h-255v12l65 19v637l-65 20v12h255v-12zM2 742l135 150h19l135 -150l-10 -11l-135 76l-133 -76z"/>
<glyph glyph-name="Idieresis" unicode="Ï" horiz-adv-x="294" d="M273 688l-62 -20v-637l62 -19v-12h-255v12l65 19v637l-65 20v12h255v-12zM-19 807q0 31 20 50.5t51 19.5q30 0 50 -19.5t20 -50.5q0 -30 -20 -50t-50 -20q-31 0 -51 20t-20 50zM172 807q0 31 19.5 50.5t50.5 19.5q30 0 50 -19.5t20 -50.5q0 -30 -20 -50t-50 -20 q-31 0 -50.5 20t-19.5 50z"/>
<glyph glyph-name="Eth" unicode="Ð" horiz-adv-x="734" d="M82 345h-63v10l63 12v307l-65 16v10h329q153 0 248 -95t95 -255q0 -162 -95 -257q-94 -93 -248 -93h-329v10l65 16v319zM346 678h-134v-311h161v-22h-161v-323h134q97 0 152 84t55 243q0 160 -55 244.5t-152 84.5z"/>
<glyph glyph-name="Ntilde" unicode="Ñ" horiz-adv-x="697" d="M17 0v10l65 19v639l-65 20v12h199l377 -522v493l-65 19v10h152v-10l-65 -19v-671h-36l-475 657v-628l65 -19v-10h-152zM184 758l-12 12q52 53 82 74t51 21q17 0 57 -23t62 -23q46 0 91 45l12 -12q-94 -97 -138 -97q-16 0 -57 23q-40 23 -63 23q-42 0 -85 -43z"/>
<glyph glyph-name="Ograve" unicode="Ò" horiz-adv-x="768" d="M45 350q0 162 94 259t245 97t245 -97t94 -259q0 -163 -94 -260q-93 -96 -245 -96t-246 96q-93 98 -93 260zM236 604q-55 -86 -55 -255t55 -254q56 -86 148 -86q93 0 147 86q55 85 55 254t-55 255q-54 87 -147 87q-92 0 -148 -87zM261 824l66 68l139 -150l-11 -11z"/>
<glyph glyph-name="Oacute" unicode="Ó" horiz-adv-x="768" d="M45 350q0 162 94 259t245 97t245 -97t94 -259q0 -163 -94 -260q-93 -96 -245 -96t-246 96q-93 98 -93 260zM236 604q-55 -86 -55 -255t55 -254q56 -86 148 -86q93 0 147 86q55 85 55 254t-55 255q-54 87 -147 87q-92 0 -148 -87zM311 731l-10 11l138 150l67 -68z"/>
<glyph glyph-name="Ocircumflex" unicode="Ô" horiz-adv-x="768" d="M45 350q0 162 94 259t245 97t245 -97t94 -259q0 -163 -94 -260q-93 -96 -245 -96t-246 96q-93 98 -93 260zM236 604q-55 -86 -55 -255t55 -254q56 -86 148 -86q93 0 147 86q55 85 55 254t-55 255q-54 87 -147 87q-92 0 -148 -87zM239 742l135 150h19l135 -150l-10 -11 l-135 76l-133 -76z"/>
<glyph glyph-name="Otilde" unicode="Õ" horiz-adv-x="768" d="M45 350q0 162 94 259t245 97t245 -97t94 -259q0 -163 -94 -260q-93 -96 -245 -96t-246 96q-93 98 -93 260zM236 604q-55 -86 -55 -255t55 -254q56 -86 148 -86q93 0 147 86q55 85 55 254t-55 255q-54 87 -147 87q-92 0 -148 -87zM220 758l-12 12q53 53 82 74t50 21 q19 0 57 -23q40 -23 62 -23q45 0 92 45l12 -12q-94 -97 -138 -97q-16 0 -57 23q-40 23 -63 23q-42 0 -85 -43z"/>
<glyph glyph-name="Odieresis" unicode="Ö" horiz-adv-x="768" d="M45 350q0 162 94 259t245 97t245 -97t94 -259q0 -163 -94 -260q-93 -96 -245 -96t-246 96q-93 98 -93 260zM236 604q-55 -86 -55 -255t55 -254q56 -86 148 -86q93 0 147 86q55 85 55 254t-55 255q-54 87 -147 87q-92 0 -148 -87zM200 807q0 31 20 50.5t50 19.5 q31 0 51 -19.5t20 -50.5q0 -30 -20 -50t-51 -20q-30 0 -50 20t-20 50zM427 807q0 31 20 50.5t50 19.5q31 0 51 -19.5t20 -50.5q0 -30 -20 -50t-51 -20q-30 0 -50 20t-20 50z"/>
<glyph glyph-name="multiply" unicode="×" horiz-adv-x="452" d="M202 300l-152 152l24 24l152 -152l152 152l24 -24l-152 -152l152 -152l-24 -24l-152 152l-152 -152l-24 24z"/>
<glyph glyph-name="Oslash" unicode="Ø" horiz-adv-x="768" d="M153 76l-70 -76h-38l88 96q-88 95 -88 254q0 162 94 259t245 97q138 0 230 -83l71 77h38l-88 -97q88 -95 88 -253q0 -163 -94 -260q-93 -96 -245 -96q-142 0 -231 82zM181 349q0 -105 21 -177l352 385q-53 134 -170 134q-95 0 -149 -88.5t-54 -253.5zM586 349 q0 104 -22 177l-351 -384q52 -133 171 -133q95 0 148.5 87.5t53.5 252.5z"/>
<glyph glyph-name="Ugrave" unicode="Ù" horiz-adv-x="723" d="M706 690l-65 -19v-411q0 -123 -77 -195q-77 -71 -201 -71q-126 0 -204 72q-77 72 -77 194v408l-65 20v12h260v-12l-65 -20v-408q0 -104 54.5 -162t145.5 -58q94 0 150.5 59t56.5 161v411l-65 19v10h152v-10zM257 824l66 68l139 -150l-11 -11z"/>
<glyph glyph-name="Uacute" unicode="Ú" horiz-adv-x="723" d="M706 690l-65 -19v-411q0 -123 -77 -195q-77 -71 -201 -71q-126 0 -204 72q-77 72 -77 194v408l-65 20v12h260v-12l-65 -20v-408q0 -104 54.5 -162t145.5 -58q94 0 150.5 59t56.5 161v411l-65 19v10h152v-10zM307 731l-10 11l138 150l67 -68z"/>
<glyph glyph-name="Ucircumflex" unicode="Û" horiz-adv-x="723" d="M706 690l-65 -19v-411q0 -123 -77 -195q-77 -71 -201 -71q-126 0 -204 72q-77 72 -77 194v408l-65 20v12h260v-12l-65 -20v-408q0 -104 54.5 -162t145.5 -58q94 0 150.5 59t56.5 161v411l-65 19v10h152v-10zM235 742l135 150h19l135 -150l-11 -11l-134 76l-134 -76z"/>
<glyph glyph-name="Udieresis" unicode="Ü" horiz-adv-x="723" d="M706 690l-65 -19v-411q0 -123 -77 -195q-77 -71 -201 -71q-126 0 -204 72q-77 72 -77 194v408l-65 20v12h260v-12l-65 -20v-408q0 -104 54.5 -162t145.5 -58q94 0 150.5 59t56.5 161v411l-65 19v10h152v-10zM196 807q0 31 20 50.5t50 19.5q31 0 50.5 -19.5t19.5 -50.5 q0 -30 -19.5 -50t-50.5 -20q-30 0 -50 20t-20 50zM423 807q0 31 20 50.5t50 19.5q31 0 50.5 -19.5t19.5 -50.5q0 -30 -19.5 -50t-50.5 -20q-30 0 -50 20t-20 50z"/>
<glyph glyph-name="Yacute" unicode="Ý" horiz-adv-x="728" d="M270 688l-65 -20l208 -337l212 337l-85 20v12h182v-12l-73 -20l-226 -362v-275l63 -19v-12h-258v12l65 19v275l-225 362l-62 20v12h264v-12zM294 731l-10 11l138 150l67 -68z"/>
<glyph glyph-name="Thorn" unicode="Þ" horiz-adv-x="632" d="M274 688l-62 -20v-108h103q122 0 197 -54q76 -52 76 -145q0 -91 -76 -145q-76 -53 -197 -53h-74l-14 14v8h73q73 0 114.5 45.5t41.5 130.5q0 86 -41.5 131.5t-114.5 45.5h-88v-507l102 -19v-12h-297v12l65 19v637l-65 20v12h257v-12z"/>
<glyph glyph-name="germandbls" unicode="ß" horiz-adv-x="660" d="M303 8l-10 10v111h22q23 -119 124 -119q47 0 75 25.5t28 68.5q0 37 -23 57t-84 41q-44 15 -82 37q-31 19 -45.5 47.5t-16.5 77.5q0 74 44 124l27 27t30 32t16.5 28.5t9.5 38.5q0 43 -30.5 69t-82.5 26q-56 0 -79.5 -33t-23.5 -109v-536l60 -19v-12h-245v12l60 19v447h-60 v10l60 19v60q0 157 204 157q179 0 179 -113q0 -51 -44 -99q-44 -44 -44 -95q0 -36 22 -57t72 -39q65 -26 104 -57q53 -40 53 -118q0 -72 -44 -111.5t-132 -39.5q-70 0 -123 29z"/>
<glyph glyph-name="agrave" unicode="à" horiz-adv-x="559" d="M360 62l-3 3q-74 -71 -178 -71q-66 0 -100 30t-34 86q0 63 50 97q21 16 63 28q40 13 81 21q85 16 105 19q2 0 5 0.5t5 1t3 0.5v96q0 52 -25 83t-70 31q-34 0 -65 -19v-82q0 -35 -19 -55.5t-50 -20.5q-30 0 -49 19t-19 51q0 59 61 90q61 33 143 33q103 0 160.5 -42 t57.5 -111v-303q0 -23 23 -23q21 0 32 11l8 -8q-29 -29 -104 -29q-38 0 -57.5 14.5t-23.5 49.5zM357 88v174q-104 -16 -136 -32q-49 -33 -50 -106q0 -43 19.5 -66t54.5 -23q62 0 112 53zM142 641l66 67l139 -150l-11 -11z"/>
<glyph glyph-name="aacute" unicode="á" horiz-adv-x="559" d="M360 62l-3 3q-74 -71 -178 -71q-66 0 -100 30t-34 86q0 63 50 97q21 16 63 28q40 13 81 21q85 16 105 19q2 0 5 0.5t5 1t3 0.5v96q0 52 -25 83t-70 31q-34 0 -65 -19v-82q0 -35 -19 -55.5t-50 -20.5q-30 0 -49 19t-19 51q0 59 61 90q61 33 143 33q103 0 160.5 -42 t57.5 -111v-303q0 -23 23 -23q21 0 32 11l8 -8q-29 -29 -104 -29q-38 0 -57.5 14.5t-23.5 49.5zM357 88v174q-104 -16 -136 -32q-49 -33 -50 -106q0 -43 19.5 -66t54.5 -23q62 0 112 53zM192 547l-10 11l138 150l67 -67z"/>
<glyph glyph-name="acircumflex" unicode="â" horiz-adv-x="559" d="M360 62l-3 3q-74 -71 -178 -71q-66 0 -100 30t-34 86q0 63 50 97q21 16 63 28q40 13 81 21q85 16 105 19q2 0 5 0.5t5 1t3 0.5v96q0 52 -25 83t-70 31q-34 0 -65 -19v-82q0 -35 -19 -55.5t-50 -20.5q-30 0 -49 19t-19 51q0 59 61 90q61 33 143 33q103 0 160.5 -42 t57.5 -111v-303q0 -23 23 -23q21 0 32 11l8 -8q-29 -29 -104 -29q-38 0 -57.5 14.5t-23.5 49.5zM357 88v174q-104 -16 -136 -32q-49 -33 -50 -106q0 -43 19.5 -66t54.5 -23q62 0 112 53zM120 558l135 150h18l135 -150l-10 -11l-134 77l-134 -77z"/>
<glyph glyph-name="atilde" unicode="ã" horiz-adv-x="559" d="M360 62l-3 3q-74 -71 -178 -71q-66 0 -100 30t-34 86q0 63 50 97q21 16 63 28q40 13 81 21q85 16 105 19q2 0 5 0.5t5 1t3 0.5v96q0 52 -25 83t-70 31q-34 0 -65 -19v-82q0 -35 -19 -55.5t-50 -20.5q-30 0 -49 19t-19 51q0 59 61 90q61 33 143 33q103 0 160.5 -42 t57.5 -111v-303q0 -23 23 -23q21 0 32 11l8 -8q-29 -29 -104 -29q-38 0 -57.5 14.5t-23.5 49.5zM357 88v174q-104 -16 -136 -32q-49 -33 -50 -106q0 -43 19.5 -66t54.5 -23q62 0 112 53zM100 574l-12 12q52 53 82 74t51 21q19 0 57 -23q40 -23 62 -23q46 0 91 45l12 -12 q-97 -97 -137 -97q-17 0 -58 23t-63 23q-42 0 -85 -43z"/>
<glyph glyph-name="adieresis" unicode="ä" horiz-adv-x="559" d="M360 62l-3 3q-74 -71 -178 -71q-66 0 -100 30t-34 86q0 63 50 97q21 16 63 28q40 13 81 21q85 16 105 19q2 0 5 0.5t5 1t3 0.5v96q0 52 -25 83t-70 31q-34 0 -65 -19v-82q0 -35 -19 -55.5t-50 -20.5q-30 0 -49 19t-19 51q0 59 61 90q61 33 143 33q103 0 160.5 -42 t57.5 -111v-303q0 -23 23 -23q21 0 32 11l8 -8q-29 -29 -104 -29q-38 0 -57.5 14.5t-23.5 49.5zM357 88v174q-104 -16 -136 -32q-49 -33 -50 -106q0 -43 19.5 -66t54.5 -23q62 0 112 53zM86 623q0 31 20 51t50 20q31 0 50.5 -20t19.5 -51q0 -30 -19.5 -50t-50.5 -20 q-30 0 -50 20t-20 50zM313 623q0 31 20 51t50 20q31 0 51 -20t20 -51q0 -30 -20 -50t-51 -20q-30 0 -50 20t-20 50z"/>
<glyph glyph-name="aring" unicode="å" horiz-adv-x="559" d="M360 62l-3 3q-74 -71 -178 -71q-66 0 -100 30t-34 86q0 63 50 97q21 16 63 28q40 13 81 21q85 16 105 19q2 0 5 0.5t5 1t3 0.5v96q0 52 -25 83t-70 31q-34 0 -65 -19v-82q0 -35 -19 -55.5t-50 -20.5q-30 0 -49 19t-19 51q0 59 61 90q61 33 143 33q103 0 160.5 -42 t57.5 -111v-303q0 -23 23 -23q21 0 32 11l8 -8q-29 -29 -104 -29q-38 0 -57.5 14.5t-23.5 49.5zM357 88v174q-104 -16 -136 -32q-49 -33 -50 -106q0 -43 19.5 -66t54.5 -23q62 0 112 53zM263 707q39 0 62.5 -22t23.5 -60t-23.5 -60t-62.5 -22q-37 0 -60.5 22t-23.5 60 t23.5 60t60.5 22zM263 565q19 0 30 16.5t11 43.5q0 28 -11 44.5t-30 16.5q-17 0 -28.5 -17t-11.5 -44t11.5 -43.5t28.5 -16.5z"/>
<glyph glyph-name="ae" unicode="æ" horiz-adv-x="829" d="M357 65q-74 -71 -178 -71q-66 0 -100 28.5t-34 81.5q0 74 79 107q26 11 62 20q77 18 170 33h1v109q0 52 -25 83t-70 31q-34 0 -65 -19v-82q0 -35 -19 -55.5t-50 -20.5q-30 0 -49 19t-19 51q0 58 60 90q61 33 142 33q94 0 149 -46q64 47 148 47q99 0 164 -56 q64 -55 64 -144q0 -21 -5 -39l-14 -15h-297v-146q44 -74 146 -74q84 0 145 59l11 -12q-83 -82 -210 -82q-133 0 -206 70zM357 87v162l-61 -10q-13 -2 -45 -11q-28 -8 -38 -15q-48 -30 -42 -94q0 -84 74 -84q63 0 112 52zM471 350v-83l196 15q0 207 -104 207q-68 0 -102 -88 q10 -26 10 -51z"/>
<glyph glyph-name="ccedilla" unicode="ç" horiz-adv-x="559" d="M221 -113l62 108q-119 3 -182.5 70.5t-63.5 183.5q0 120 67.5 187.5t191.5 67.5q86 0 150 -34q65 -35 65 -97q0 -33 -19.5 -52t-50.5 -19q-32 0 -51.5 20.5t-19.5 55.5v89q-37 22 -73 22q-63 0 -98 -58.5t-35 -161.5q0 -116 44.5 -178t133.5 -62q82 0 144 60l11 -12 q-80 -79 -196 -82l-24 -44q88 0 88 -47q0 -48 -99 -138l-7 8q43 43 43 79q0 20 -17.5 27t-63.5 7z"/>
<glyph glyph-name="egrave" unicode="è" horiz-adv-x="562" d="M515 265l-15 -15h-336q1 -220 186 -220q85 0 144 59l11 -12q-83 -82 -207 -82q-126 0 -194 68q-67 68 -67 181q0 118 71 189t183 71q99 0 164 -56t65 -144q0 -21 -5 -39zM296 489q-56 0 -92.5 -58.5t-39.5 -165.5l235 17q0 207 -103 207zM169 641l67 67l139 -150l-11 -11 z"/>
<glyph glyph-name="eacute" unicode="é" horiz-adv-x="562" d="M515 265l-15 -15h-336q1 -220 186 -220q85 0 144 59l11 -12q-83 -82 -207 -82q-126 0 -194 68q-67 68 -67 181q0 118 71 189t183 71q99 0 164 -56t65 -144q0 -21 -5 -39zM296 489q-56 0 -92.5 -58.5t-39.5 -165.5l235 17q0 207 -103 207zM219 547l-10 11l138 150l67 -67z "/>
<glyph glyph-name="ecircumflex" unicode="ê" horiz-adv-x="562" d="M515 265l-15 -15h-336q1 -220 186 -220q85 0 144 59l11 -12q-83 -82 -207 -82q-126 0 -194 68q-67 68 -67 181q0 118 71 189t183 71q99 0 164 -56t65 -144q0 -21 -5 -39zM296 489q-56 0 -92.5 -58.5t-39.5 -165.5l235 17q0 207 -103 207zM146 558l135 150h19l135 -150 l-10 -11l-135 77l-133 -77z"/>
<glyph glyph-name="edieresis" unicode="ë" horiz-adv-x="562" d="M515 265l-15 -15h-336q1 -220 186 -220q85 0 144 59l11 -12q-83 -82 -207 -82q-126 0 -194 68q-67 68 -67 181q0 118 71 189t183 71q99 0 164 -56t65 -144q0 -21 -5 -39zM296 489q-56 0 -92.5 -58.5t-39.5 -165.5l235 17q0 207 -103 207zM106 623q0 31 19.5 51t50.5 20 t50.5 -20t19.5 -51q0 -30 -19.5 -50t-50.5 -20t-50.5 20t-19.5 50zM333 623q0 31 19.5 51t50.5 20t50.5 -20t19.5 -51q0 -30 -19.5 -50t-50.5 -20t-50.5 20t-19.5 50z"/>
<glyph glyph-name="igrave" unicode="ì" horiz-adv-x="279" d="M17 641l67 67l138 -150l-10 -11zM262 0h-245v12l60 19v433l-60 13v13l171 17l14 -14v-462l60 -19v-12z"/>
<glyph glyph-name="iacute" unicode="í" horiz-adv-x="279" d="M67 547l-10 11l138 150l67 -67zM262 0h-245v12l60 19v433l-60 13v13l171 17l14 -14v-462l60 -19v-12z"/>
<glyph glyph-name="icircumflex" unicode="î" horiz-adv-x="279" d="M262 0h-245v12l60 19v433l-60 13v13l171 17l14 -14v-462l60 -19v-12zM-5 558l135 150h18l136 -150l-11 -11l-134 77l-134 -77z"/>
<glyph glyph-name="idieresis" unicode="ï" horiz-adv-x="279" d="M262 0h-245v12l60 19v433l-60 13v13l171 17l14 -14v-462l60 -19v-12zM-21 623q0 31 20 51t50 20q31 0 50.5 -20t19.5 -51q0 -30 -19.5 -50t-50.5 -20q-30 0 -50 20t-20 50zM151 623q0 31 20 51t50 20q31 0 51 -20t20 -51q0 -30 -20 -50t-51 -20q-30 0 -50 20t-20 50z"/>
<glyph glyph-name="eth" unicode="ð" horiz-adv-x="588" d="M315 546l-25 24l61 60q-107 68 -235 78l19 19q165 -17 250 -63l64 64l24 -24l-59 -59q137 -96 137 -324q0 -162 -65.5 -244t-188.5 -82q-116 0 -187 68q-69 69 -69 184q0 117 69 187q70 70 183 70q129 0 187 -94h4q0 119 -105 200zM294 489q-59 0 -92 -61.5t-33 -178.5 t33 -179q34 -60 92 -60t92 61t34 178q0 115 -34 177.5t-92 62.5z"/>
<glyph glyph-name="ntilde" unicode="ñ" d="M202 406v-375l51 -19v-12h-236v12l60 19v433l-60 13v13l171 17l14 -14l-3 -61l3 -3q36 35 88 55t103 20q74 0 113.5 -46.5t39.5 -127.5v-299l60 -19v-12h-236v12l50 19v281q0 152 -94 152q-32 0 -66 -16t-58 -42zM147 574l-12 12q52 53 82 74t51 21q19 0 57 -23 q40 -23 62 -23q46 0 91 45l12 -12q-97 -97 -137 -97q-16 0 -57 23t-64 23q-42 0 -85 -43z"/>
<glyph glyph-name="ograve" unicode="ò" horiz-adv-x="585" d="M292 504q115 0 185 -70q71 -69 71 -185t-71 -185t-185 -69t-185 69q-70 69 -70 185t70 185q70 70 185 70zM164 249q0 -115 34.5 -177t93.5 -62q60 0 94 61.5t34 177.5t-33.5 178t-94.5 62q-59 0 -93.5 -62.5t-34.5 -177.5zM169 641l67 67l138 -150l-10 -11z"/>
<glyph glyph-name="oacute" unicode="ó" horiz-adv-x="585" d="M292 504q115 0 185 -70q71 -69 71 -185t-71 -185t-185 -69t-185 69q-70 69 -70 185t70 185q70 70 185 70zM164 249q0 -115 34.5 -177t93.5 -62q60 0 94 61.5t34 177.5t-33.5 178t-94.5 62q-59 0 -93.5 -62.5t-34.5 -177.5zM220 547l-11 11l139 150l66 -67z"/>
<glyph glyph-name="ocircumflex" unicode="ô" horiz-adv-x="585" d="M292 504q115 0 185 -70q71 -69 71 -185t-71 -185t-185 -69t-185 69q-70 69 -70 185t70 185q70 70 185 70zM164 249q0 -115 34.5 -177t93.5 -62q60 0 94 61.5t34 177.5t-33.5 178t-94.5 62q-59 0 -93.5 -62.5t-34.5 -177.5zM148 558l135 150h18l135 -150l-10 -11l-134 77 l-134 -77z"/>
<glyph glyph-name="otilde" unicode="õ" horiz-adv-x="585" d="M292 504q115 0 185 -70q71 -69 71 -185t-71 -185t-185 -69t-185 69q-70 69 -70 185t70 185q70 70 185 70zM164 249q0 -115 34.5 -177t93.5 -62q60 0 94 61.5t34 177.5t-33.5 178t-94.5 62q-59 0 -93.5 -62.5t-34.5 -177.5zM128 574l-12 12q52 53 82 74t51 21q19 0 57 -23 q40 -23 62 -23q46 0 91 45l12 -12q-97 -97 -137 -97q-17 0 -58 23t-63 23q-42 0 -85 -43z"/>
<glyph glyph-name="odieresis" unicode="ö" horiz-adv-x="585" d="M292 504q115 0 185 -70q71 -69 71 -185t-71 -185t-185 -69t-185 69q-70 69 -70 185t70 185q70 70 185 70zM164 249q0 -115 34.5 -177t93.5 -62q60 0 94 61.5t34 177.5t-33.5 178t-94.5 62q-59 0 -93.5 -62.5t-34.5 -177.5zM108 623q0 31 20 51t51 20q30 0 50 -20t20 -51 q0 -30 -20 -50t-50 -20q-31 0 -51 20t-20 50zM336 623q0 31 19.5 51t50.5 20q30 0 50 -20t20 -51q0 -30 -20 -50t-50 -20q-31 0 -50.5 20t-19.5 50z"/>
<glyph glyph-name="divide" unicode="÷" horiz-adv-x="452" d="M416 288h-380v34h380v-34zM184 123q-16 17 -16 42t16 42q17 17 42 17t41 -17q17 -17 17 -42t-17 -42q-16 -16 -41 -16t-42 16zM184 403q-16 17 -16 42t16 42q17 17 42 17t41 -17q17 -17 17 -42t-17 -42q-16 -16 -41 -16t-42 16z"/>
<glyph glyph-name="oslash" unicode="ø" horiz-adv-x="585" d="M124 49l-46 -49h-41l65 69q-65 71 -65 180q0 116 70 185q70 70 185 70q100 0 168 -54l47 50h41l-66 -71q66 -69 66 -180q0 -116 -71 -185t-185 -69q-102 0 -168 54zM420 249q0 60 -9 105l-229 -244q31 -100 110 -100q60 0 94 61.5t34 177.5zM164 249q0 -61 9 -104 l229 244q-31 100 -110 100q-59 0 -93.5 -62.5t-34.5 -177.5z"/>
<glyph glyph-name="ugrave" unicode="ù" horiz-adv-x="618" d="M541 493v-457l60 -14v-13l-171 -12l-14 14l3 56l-3 3q-74 -75 -181 -75q-74 0 -116 42.5t-42 112.5v314l-60 13v13l171 17l14 -14v-324q0 -134 93 -134q70 0 121 58v371l-60 13v13l171 17zM181 641l67 67l138 -150l-10 -11z"/>
<glyph glyph-name="uacute" unicode="ú" horiz-adv-x="618" d="M541 493v-457l60 -14v-13l-171 -12l-14 14l3 56l-3 3q-74 -75 -181 -75q-74 0 -116 42.5t-42 112.5v314l-60 13v13l171 17l14 -14v-324q0 -134 93 -134q70 0 121 58v371l-60 13v13l171 17zM231 547l-11 11l139 150l67 -67z"/>
<glyph glyph-name="ucircumflex" unicode="û" horiz-adv-x="618" d="M541 493v-457l60 -14v-13l-171 -12l-14 14l3 56l-3 3q-74 -75 -181 -75q-74 0 -116 42.5t-42 112.5v314l-60 13v13l171 17l14 -14v-324q0 -134 93 -134q70 0 121 58v371l-60 13v13l171 17zM159 558l136 150h18l135 -150l-10 -11l-134 77l-134 -77z"/>
<glyph glyph-name="udieresis" unicode="ü" horiz-adv-x="618" d="M541 493v-457l60 -14v-13l-171 -12l-14 14l3 56l-3 3q-74 -75 -181 -75q-74 0 -116 42.5t-42 112.5v314l-60 13v13l171 17l14 -14v-324q0 -134 93 -134q70 0 121 58v371l-60 13v13l171 17zM117 623q0 31 20 51t51 20q30 0 50 -20t20 -51q0 -30 -20 -50t-50 -20 q-31 0 -51 20t-20 50zM345 623q0 31 19.5 51t50.5 20q30 0 50 -20t20 -51q0 -30 -20 -50t-50 -20q-31 0 -50.5 20t-19.5 50z"/>
<glyph glyph-name="yacute" unicode="ý" horiz-adv-x="602" d="M288 -12l-219 481l-60 19v12h249v-12l-60 -19l153 -341l153 341l-84 19v12h172v-12l-64 -19l-212 -469q-48 -106 -85 -156q-34 -46 -86 -46q-39 0 -65.5 19t-26.5 58q0 29 15 44.5t42 15.5t43 -16.5t16 -44.5v-39q6 -2 11 -2q22 0 45.5 35t62.5 120zM249 547l-11 11 l139 150l67 -67z"/>
<glyph glyph-name="thorn" unicode="þ" horiz-adv-x="590" d="M292 -200h-275v12l60 19v852l-60 13v13l171 17l14 -14v-212l-3 -63l3 -3q64 70 161 70q92 0 141 -65t49 -178q0 -127 -63.5 -196.5t-178.5 -69.5q-64 0 -109 24v-188l90 -19v-12zM202 411v-377q45 -24 86 -24q67 0 102.5 60.5t35.5 173.5q0 98 -34 159q-33 61 -90 61 q-58 0 -100 -53z"/>
<glyph glyph-name="uni0400" unicode="Ѐ" d="M212 350v-328h295l52 106h17v-128h-559v10l65 16v648l-65 16v10h549v-128h-17l-52 106h-285v-306h230l23 82h16v-185h-16l-23 81h-230zM189 824l66 68l139 -150l-11 -11z"/>
<glyph glyph-name="afii10023" unicode="Ё" d="M212 350v-328h295l52 106h17v-128h-559v10l65 16v648l-65 16v10h549v-128h-17l-52 106h-285v-306h230l23 82h16v-185h-16l-23 81h-230zM128 823q0 31 20 51t50 20q31 0 51 -20t20 -51q0 -30 -20 -50t-51 -20q-30 0 -50 20t-20 50zM355 823q0 31 20 51t50 20q31 0 51 -20 t20 -51q0 -30 -20 -50t-51 -20q-30 0 -50 20t-20 50z"/>
<glyph glyph-name="afii10051" unicode="Ђ" horiz-adv-x="821" d="M596 -110v-47q29 0 42.5 49t13.5 156v182q0 155 -108 155q-80 0 -140 -57v-297l61 -19v-12h-256v12l65 19v647h-178l-51 -106h-18v128h624v-128h-17l-52 106h-178v-264l-3 -61l3 -3q43 35 103.5 55t115.5 20q78 0 118.5 -46t40.5 -126v-205q0 -109 -50.5 -167.5 t-144.5 -58.5q-55 0 -83 19.5t-28 53.5q0 27 17 44t43 17t43 -18t17 -48z"/>
<glyph glyph-name="afii10052" unicode="Ѓ" horiz-adv-x="578" d="M221 731l-10 11l138 150l67 -68zM475 678h-263v-647l95 -19v-12h-290v12l65 19v643l-65 16v10h527v-128h-18z"/>
<glyph glyph-name="afii10053" unicode="Є" horiz-adv-x="701" d="M642 109l12 -12q-100 -103 -261 -103q-159 0 -254 96q-94 95 -94 260q0 164 94 259q94 97 250 97q124 0 203 -56l49 26l10 -10v-144h-18q-24 98 -94 131q-57 28 -119 28q-232 0 -239 -312h348v-22h-348q2 -152 66.5 -234.5t191.5 -82.5t203 79z"/>
<glyph glyph-name="afii10054" unicode="Ѕ" horiz-adv-x="590" d="M62 9l-10 10v148h18q24 -95 93 -130q60 -28 116 -28q79 0 123.5 39t44.5 107q0 62 -37 87q-36 25 -131 54l-49 15q-6 2 -45 16q-28 10 -44 20q-48 31 -64 59q-24 44 -24 97q0 93 61 148t175 55q95 0 168 -45l46 29l10 -10v-147h-18q-12 47 -35 80t-51 49t-53.5 22.5 t-51.5 6.5q-68 0 -108.5 -37t-40.5 -98q0 -59 44 -87q28 -16 45 -23q38 -14 67 -22q33 -10 52 -18q64 -20 94 -42q54 -38 67 -63q25 -46 25 -98q0 -96 -66 -152.5t-193 -56.5q-103 0 -181 45z"/>
<glyph glyph-name="afii10055" unicode="І" horiz-adv-x="294" d="M273 688l-62 -20v-637l62 -19v-12h-255v12l65 19v637l-65 20v12h255v-12z"/>
<glyph glyph-name="afii10056" unicode="Ї" horiz-adv-x="294" d="M273 688l-62 -20v-637l62 -19v-12h-255v12l65 19v637l-65 20v12h255v-12zM-19 807q0 31 20 50.5t51 19.5q30 0 50 -19.5t20 -50.5q0 -30 -20 -50t-50 -20q-31 0 -51 20t-20 50zM172 807q0 31 19.5 50.5t50.5 19.5q30 0 50 -19.5t20 -50.5q0 -30 -20 -50t-50 -20 q-31 0 -50.5 20t-19.5 50z"/>
<glyph glyph-name="afii10057" unicode="Ј" horiz-adv-x="294" d="M83 21v647l-65 20v12h255v-12l-63 -20v-647q0 -73 -43 -126t-135 -100l-11 11q62 92 62 215z"/>
<glyph glyph-name="afii10058" unicode="Љ" horiz-adv-x="1094" d="M206 143l55 531l-65 16v10h524v-10l-65 -16v-287h126q121 0 194 -52q74 -53 74 -141q0 -89 -74 -142q-73 -52 -194 -52h-321v10l65 16v652h-243l-54 -532q-16 -151 -108 -151q-39 0 -66 20t-27 60q0 30 17.5 48t45.5 18q30 0 47.5 -18t17.5 -51v-31q4 -2 9 -2 q13 0 24.5 28.5t17.5 75.5zM655 365v-343h102q74 0 117 44.5t43 127.5t-43 127t-117 44h-102z"/>
<glyph glyph-name="afii10059" unicode="Њ" horiz-adv-x="1096" d="M17 0v12l65 19v637l-65 20v12h260v-12l-65 -20v-291h315v291l-65 20v12h260v-12l-65 -20v-291h126q121 0 194 -51q74 -50 74 -137t-74 -138q-73 -51 -194 -51h-321v10l65 16v329h-315v-324l65 -19v-12h-260zM657 355v-333h102q75 0 117.5 43t42.5 124q0 80 -43 123 t-117 43h-102z"/>
<glyph glyph-name="afii10060" unicode="Ћ" horiz-adv-x="863" d="M404 328v-297l61 -19v-12h-256v12l65 19v647h-178l-51 -106h-18v128h624v-128h-17l-52 106h-178v-264l-3 -61l3 -3q43 35 103.5 55t115.5 20q78 0 118.5 -46t40.5 -127v-221l65 -19v-12h-262v12l67 19v202q0 152 -108 152q-80 0 -140 -57z"/>
<glyph glyph-name="afii10061" unicode="Ќ" horiz-adv-x="707" d="M679 41l9 -9q-38 -38 -107 -38q-61 0 -94 34t-49 109l-20 94q-13 62 -45 90t-96 28h-69v-318l65 -19v-12h-259v12l65 19v637l-65 20v12h259v-12l-65 -20v-298q127 0 160 119l18 73q20 74 51.5 109t88.5 35q44 0 71.5 -20.5t27.5 -59.5q0 -32 -17 -49t-47 -17t-47 18.5 t-17 50.5v39q-7 4 -16 4q-44 0 -72 -109l-18 -74q-22 -88 -88 -120h20q100 0 151.5 -31t67.5 -103l21 -91q15 -65 30.5 -92t42.5 -27q21 0 43 16zM284 731l-11 11l139 150l67 -68z"/>
<glyph glyph-name="uni040D" unicode="Ѝ" horiz-adv-x="758" d="M256 824l67 68l138 -150l-10 -11zM17 0v12l65 19v637l-65 20v12h260v-12l-65 -20v-562l334 547v15l-65 20v12h260v-12l-65 -20v-637l65 -19v-12h-260v12l65 19v566l-334 -548v-18l65 -19v-12h-260z"/>
<glyph glyph-name="afii10062" unicode="Ў" horiz-adv-x="701" d="M420 763v62q0 28 15.5 44.5t40.5 16.5q26 0 41.5 -15.5t15.5 -39.5q0 -32 -29 -55q-52 -39 -140 -39q-62 0 -116 23q-53 24 -53 71q-4 38 34 50q36 13 62 -10q19 -17 17 -46v-62q31 -11 56 -11q23 0 56 11zM330 180l-254 488l-64 20v12h264v-12l-66 -20l189 -366l197 366 l-89 20v12h182v-12l-69 -20l-260 -480q-56 -105 -98 -150q-41 -44 -100 -44q-57 0 -87 30q-19 19 -19 51q0 31 18 49t47 18q28 0 45.5 -18t17.5 -47v-48q6 -3 12 -3q29 0 61 38t73 116z"/>
<glyph glyph-name="afii10145" unicode="Џ" horiz-adv-x="750" d="M363 -154l-26 154h-320v10l65 16v642l-65 20v12h260v-12l-65 -20v-646h326v646l-65 20v12h260v-12l-65 -20v-642l65 -16v-10h-318l-26 -154h-26z"/>
<glyph glyph-name="afii10017" unicode="А" horiz-adv-x="761" d="M369 700h38l283 -669l64 -19v-12h-263v12l65 19l-81 196h-290l-85 -196l89 -19v-12h-183v12l70 19zM465 249l-132 320l-139 -320h271z"/>
<glyph glyph-name="afii10018" unicode="Б" horiz-adv-x="654" d="M479 678h-267v-279h129q121 0 195 -54q74 -53 74 -145t-74 -146t-195 -54h-324v10l65 16v648l-65 16v10h531v-128h-18zM212 377v-355h105q76 0 118.5 46t42.5 132t-42.5 131.5t-118.5 45.5h-105z"/>
<glyph glyph-name="afii10019" unicode="В" horiz-adv-x="668" d="M17 690v10h333q110 0 178 -47t68 -127q0 -64 -43.5 -108t-120.5 -59q89 -14 140 -61t51 -115q0 -85 -75 -134q-74 -49 -198 -49h-333v10l65 16v648zM212 348v-326h115q77 0 120.5 41.5t43.5 120.5q0 80 -44 122t-120 42h-115zM327 678h-115v-308h115q64 0 100.5 39.5 t36.5 114.5t-36.5 114.5t-100.5 39.5z"/>
<glyph glyph-name="afii10020" unicode="Г" horiz-adv-x="578" d="M475 678h-263v-647l95 -19v-12h-290v12l65 19v643l-65 16v10h527v-128h-18z"/>
<glyph glyph-name="afii10021" unicode="Д" horiz-adv-x="720" d="M677 -154l-54 154h-526l-54 -154h-27v176h82q16 6 30 39t20 82l56 531l-65 16v10h556v-10l-65 -16v-652h73v-176h-26zM500 678h-271l-54 -532q-11 -96 -42 -124h367v656z"/>
<glyph glyph-name="afii10022" unicode="Е" d="M212 350v-328h295l52 106h17v-128h-559v10l65 16v648l-65 16v10h549v-128h-17l-52 106h-285v-306h230l23 82h16v-185h-16l-23 81h-230z"/>
<glyph glyph-name="afii10024" unicode="Ж" horiz-adv-x="1078" d="M201 668v-39q0 -32 -17 -50.5t-48 -18.5q-30 0 -46.5 17t-16.5 49q0 39 26.5 59.5t70.5 20.5q55 0 84.5 -34t49.5 -110l20 -73q35 -119 150 -119v298l-65 20v12h259v-12l-65 -20v-298q115 0 150 119l20 73q20 76 49.5 110t84.5 34q44 0 70.5 -20.5t26.5 -59.5 q0 -32 -16.5 -49t-46.5 -17q-31 0 -48 18.5t-17 50.5v39q-7 4 -14 4q-40 0 -68 -109l-19 -74q-25 -90 -84 -120h22q100 0 149.5 -33.5t64.5 -113.5l16 -78q12 -65 27.5 -92t41.5 -27q22 0 42 16l9 -9q-35 -38 -103 -38q-59 0 -91.5 35t-45.5 108l-14 81q-13 71 -44 101 t-96 30h-66v-318l65 -19v-12h-259v12l65 19v318h-66q-65 0 -96 -30t-44 -101l-14 -81q-13 -73 -45.5 -108t-91.5 -35q-68 0 -103 38l9 9q20 -16 42 -16q26 0 41.5 27t27.5 92l16 78q16 80 65 113.5t149 33.5h21q-58 31 -82 120l-20 74q-28 109 -68 109q-7 0 -14 -4z"/>
<glyph glyph-name="afii10025" unicode="З" horiz-adv-x="614" d="M78 537h-17v139l10 10l48 -21q70 41 179 41t176 -49q68 -48 68 -131q0 -63 -42.5 -107t-118.5 -60q87 -14 137.5 -61t50.5 -116q0 -86 -74 -137q-73 -51 -195 -51q-119 0 -192 43l-48 -23l-10 10v141h17q23 -88 89 -119q56 -26 112 -26q80 0 124.5 42t44.5 122 q0 82 -46 123t-132 41q-49 0 -85 -4v29q47 -3 85 -3q151 0 151 154q0 77 -37.5 117t-104.5 40q-49 0 -102 -25q-65 -28 -88 -119z"/>
<glyph glyph-name="afii10026" unicode="И" horiz-adv-x="758" d="M17 0v12l65 19v637l-65 20v12h260v-12l-65 -20v-562l334 547v15l-65 20v12h260v-12l-65 -20v-637l65 -19v-12h-260v12l65 19v566l-334 -548v-18l65 -19v-12h-260z"/>
<glyph glyph-name="afii10027" unicode="Й" horiz-adv-x="758" d="M435 779v63q0 27 15.5 43.5t40.5 16.5q26 0 41.5 -15.5t15.5 -39.5q0 -46 -54 -70q-52 -24 -115 -24t-116 24t-53 71q-4 37 34 50q36 11 62 -11q19 -18 17 -45v-63q26 -10 56 -10q29 0 56 10zM17 0v12l65 19v637l-65 20v12h260v-12l-65 -20v-562l334 547v15l-65 20v12 h260v-12l-65 -20v-637l65 -19v-12h-260v12l65 19v566l-334 -548v-18l65 -19v-12h-260z"/>
<glyph glyph-name="afii10028" unicode="К" horiz-adv-x="703" d="M679 41l9 -9q-38 -38 -107 -38q-61 0 -94 34t-49 109l-20 94q-13 62 -45 90t-96 28h-69v-318l65 -19v-12h-259v12l65 19v637l-65 20v12h259v-12l-65 -20v-298q127 0 160 119l18 73q20 74 51.5 109t88.5 35q44 0 71.5 -20.5t27.5 -59.5q0 -32 -17 -49t-47 -17t-47 18.5 t-17 50.5v39q-7 4 -16 4q-44 0 -72 -109l-18 -74q-22 -88 -88 -120h20q100 0 151.5 -31t67.5 -103l21 -91q15 -65 30.5 -92t42.5 -27q21 0 43 16z"/>
<glyph glyph-name="afii10029" unicode="Л" horiz-adv-x="752" d="M206 143l55 531l-65 16v10h539v-10l-65 -16v-643l65 -19v-12h-260v12l65 19v647h-253l-54 -532q-16 -151 -113 -151q-39 0 -66 20t-27 60q0 30 17.5 48t45.5 18q30 0 47.5 -18t17.5 -51v-31q4 -2 9 -2q13 0 24.5 28.5t17.5 75.5z"/>
<glyph glyph-name="afii10030" unicode="М" horiz-adv-x="934" d="M877 688l-62 -20l45 -637l62 -19v-12h-257v12l65 19l-40 564l-254 -595h-38l-258 596l-41 -567l62 -19v-10h-149v10l65 19l45 639l-65 20v12h172l242 -569l241 569h165v-12z"/>
<glyph glyph-name="afii10031" unicode="Н" horiz-adv-x="758" d="M17 0v12l65 19v637l-65 20v12h260v-12l-65 -20v-301h334v301l-65 20v12h260v-12l-65 -20v-637l65 -19v-12h-260v12l65 19v314h-334v-314l65 -19v-12h-260z"/>
<glyph glyph-name="afii10032" unicode="О" horiz-adv-x="768" d="M45 350q0 162 94 259t245 97t245 -97t94 -259q0 -163 -94 -260q-93 -96 -245 -96t-246 96q-93 98 -93 260zM236 604q-55 -86 -55 -255t55 -254q56 -86 148 -86q93 0 147 86q55 85 55 254t-55 255q-54 87 -147 87q-92 0 -148 -87z"/>
<glyph glyph-name="afii10033" unicode="П" horiz-adv-x="750" d="M17 0v12l65 19v643l-65 16v10h716v-10l-65 -16v-643l65 -19v-12h-260v12l65 19v647h-326v-647l65 -19v-12h-260z"/>
<glyph glyph-name="afii10034" unicode="Р" horiz-adv-x="640" d="M300 678h-88v-647l102 -19v-12h-297v12l65 19v643l-65 16v10h298q122 0 197 -54q76 -54 76 -147t-76 -147q-75 -54 -197 -54h-74l-14 15v7h73q73 0 114.5 46.5t41.5 132.5t-41.5 132.5t-114.5 46.5z"/>
<glyph glyph-name="afii10035" unicode="С" horiz-adv-x="701" d="M642 108l12 -12q-100 -102 -261 -102q-159 0 -254 96q-94 95 -94 260q0 164 94 259q94 97 250 97q124 0 203 -56l49 26l10 -10v-144h-18q-25 98 -98 131q-59 28 -120 28q-112 0 -173 -83t-61 -243q0 -155 65 -240t194 -85q127 0 202 78z"/>
<glyph glyph-name="afii10036" unicode="Т" horiz-adv-x="679" d="M641 572l-52 106h-176v-647l65 -19v-12h-259v12l65 19v647h-176l-52 -106h-17v128h619v-128h-17z"/>
<glyph glyph-name="afii10037" unicode="У" horiz-adv-x="701" d="M330 180l-254 488l-64 20v12h264v-12l-66 -20l189 -366l197 366l-89 20v12h182v-12l-69 -20l-260 -480q-56 -105 -98 -150q-41 -44 -100 -44q-57 0 -87 30q-19 19 -19 51q0 31 18 49t47 18q28 0 45.5 -18t17.5 -47v-48q6 -3 12 -3q29 0 61 38t73 116z"/>
<glyph glyph-name="afii10038" unicode="Ф" horiz-adv-x="897" d="M576 688l-63 -20v-47q155 0 246 -73q93 -74 93 -198q0 -126 -93 -199q-91 -73 -246 -73v-47l63 -19v-12h-258v12l65 19v47q-155 0 -246 73q-92 74 -92 199q0 124 92 198q91 73 246 73v47l-65 20v12h258v-12zM383 93v513q-96 0 -149 -65.5t-53 -191.5q0 -125 53.5 -190.5 t148.5 -65.5zM513 606v-513q96 0 149 65.5t53 190.5q0 127 -52.5 192t-149.5 65z"/>
<glyph glyph-name="afii10039" unicode="Х" horiz-adv-x="745" d="M470 12l66 19l-208 295l-216 -295l85 -19v-12h-183v12l73 19l228 312l-229 325l-61 20v12h260v-12l-65 -20l190 -271l189 271l-85 20v12h183v-12l-73 -20l-201 -289l246 -348l62 -19v-12h-261v12z"/>
<glyph glyph-name="afii10040" unicode="Ц" horiz-adv-x="755" d="M710 -154l-57 154h-636v10l65 16v642l-65 20v12h260v-12l-65 -20v-646h321v646l-65 20v12h260v-12l-65 -20v-646h73v-176h-26z"/>
<glyph glyph-name="afii10041" unicode="Ч" horiz-adv-x="714" d="M277 688l-65 -20v-180q0 -165 131 -165q89 0 159 40v305l-65 20v12h260v-12l-65 -20v-637l65 -19v-12h-260v12l65 19v312q-89 -56 -217 -56q-100 0 -151.5 48.5t-51.5 136.5v196l-65 20v12h260v-12z"/>
<glyph glyph-name="afii10042" unicode="Ш" horiz-adv-x="1099" d="M17 0v10l65 16v642l-65 20v12h260v-12l-65 -20v-646h273v646l-65 20v12h260v-12l-65 -20v-646h272v646l-65 20v12h260v-12l-65 -20v-642l65 -16v-10h-1065z"/>
<glyph glyph-name="afii10043" unicode="Щ" horiz-adv-x="1109" d="M1064 -154l-57 154h-990v10l65 16v642l-65 20v12h260v-12l-65 -20v-646h273v646l-65 20v12h260v-12l-65 -20v-646h272v646l-65 20v12h260v-12l-65 -20v-646h73v-176h-26z"/>
<glyph glyph-name="afii10044" unicode="Ъ" horiz-adv-x="824" d="M450 690l-65 -16v-287h126q121 0 194 -52q74 -53 74 -141q0 -89 -74 -142q-73 -52 -194 -52h-321v10l65 16v652h-150l-51 -106h-18v128h414v-10zM385 365v-343h102q74 0 117 44.5t43 127.5t-43 127t-117 44h-102z"/>
<glyph glyph-name="afii10045" unicode="Ы" horiz-adv-x="915" d="M277 688l-65 -20v-281h125q122 0 195 -52q74 -53 74 -141q0 -89 -74 -142q-73 -52 -195 -52h-320v10l65 16v642l-65 20v12h260v-12zM212 365v-343h102q74 0 117 44.5t43 127.5t-43 127t-117 44h-102zM896 688l-63 -20v-637l63 -19v-12h-257v12l65 19v637l-65 20v12h257 v-12z"/>
<glyph glyph-name="afii10046" unicode="Ь" horiz-adv-x="650" d="M277 688l-65 -20v-281h125q122 0 195 -52q74 -53 74 -141q0 -89 -74 -142q-73 -52 -195 -52h-320v10l65 16v642l-65 20v12h260v-12zM212 365v-343h102q74 0 117 44.5t43 127.5t-43 127t-117 44h-102z"/>
<glyph glyph-name="afii10047" unicode="Э" horiz-adv-x="701" d="M526 347h-347v22h347q-3 154 -63 233t-174 79q-60 0 -119 -28q-73 -33 -96 -131h-17v144l10 10l48 -26q79 56 202 56q157 0 251 -97q95 -97 95 -259t-95 -260q-94 -96 -252 -96q-130 0 -207 56l-49 -26l-10 10v144h18q25 -98 97 -131q61 -27 121 -27q238 0 240 327z"/>
<glyph glyph-name="afii10048" unicode="Ю" horiz-adv-x="1017" d="M17 0v12l65 19v637l-65 20v12h260v-12l-65 -20v-301h128q5 155 92 247t224 92q141 0 228 -97q88 -97 88 -259q0 -163 -88 -260q-87 -96 -228 -96q-139 0 -228 95q-86 94 -88 256h-128v-314l65 -19v-12h-260zM477 349q0 -164 48 -252t131 -88q85 0 132.5 87.5t47.5 252.5 t-48.5 253.5t-131.5 88.5t-131 -88.5t-48 -253.5z"/>
<glyph glyph-name="afii10049" unicode="Я" horiz-adv-x="678" d="M14 32l9 9q20 -16 42 -16q25 0 39 24t29 86l18 74q14 58 44 89.5t83 42.5q-90 14 -140.5 61t-50.5 117q0 84 71 132q70 49 189 49h315v-10l-65 -16v-643l65 -19v-12h-267v12l72 19v301h-57q-61 0 -91 -29.5t-45 -97.5l-16 -76q-15 -68 -48.5 -101.5t-92.5 -33.5 q-68 0 -103 38zM467 354v324h-106q-67 0 -104.5 -41.5t-37.5 -120.5q0 -80 37.5 -121t104.5 -41h106z"/>
<glyph glyph-name="afii10065" unicode="а" horiz-adv-x="559" d="M360 62l-3 3q-74 -71 -178 -71q-66 0 -100 30t-34 86q0 63 50 97q21 16 63 28q40 13 81 21q85 16 105 19q2 0 5 0.5t5 1t3 0.5v96q0 52 -25 83t-70 31q-34 0 -65 -19v-82q0 -35 -19 -55.5t-50 -20.5q-30 0 -49 19t-19 51q0 59 61 90q61 33 143 33q103 0 160.5 -42 t57.5 -111v-303q0 -23 23 -23q21 0 32 11l8 -8q-29 -29 -104 -29q-38 0 -57.5 14.5t-23.5 49.5zM357 88v174q-104 -16 -136 -32q-49 -33 -50 -106q0 -43 19.5 -66t54.5 -23q62 0 112 53z"/>
<glyph glyph-name="afii10066" unicode="б" horiz-adv-x="598" d="M112 410h4q25 43 77 68.5t116 25.5q113 0 182 -70q70 -70 70 -187q0 -115 -70 -184q-70 -68 -186 -68q-254 0 -254 335q0 96 21 166q34 114 134 166q57 29 176 38q101 8 120 27l14 -14q-13 -32 -33 -53.5t-47.5 -32t-51.5 -15t-59 -7.5q-29 -2 -45 -4t-42 -7t-40 -13 t-32.5 -22t-28 -33.5t-17 -49t-8.5 -66.5zM183 249q0 -115 33.5 -177t92.5 -62q58 0 91.5 62t33.5 177q0 116 -33.5 178t-91.5 62q-59 0 -92.5 -62t-33.5 -178z"/>
<glyph glyph-name="afii10067" unicode="в" horiz-adv-x="556" d="M17 490v10h314q76 0 123 -33.5t47 -89.5q0 -45 -31.5 -77t-86.5 -43q66 -9 103.5 -42.5t37.5 -83.5q0 -60 -52.5 -95.5t-140.5 -35.5h-314v10l60 16v448zM289 248h-87v-228h87q52 0 80 28.5t28 84.5t-28 85.5t-80 29.5zM202 480v-213h87q40 0 62.5 27.5t22.5 79.5 t-22.5 79t-62.5 27h-87z"/>
<glyph glyph-name="afii10068" unicode="г" horiz-adv-x="466" d="M419 387l-35 91h-182v-447l90 -19v-12h-275v12l60 19v443l-60 16v10h419v-113h-17z"/>
<glyph glyph-name="afii10069" unicode="д" horiz-adv-x="588" d="M542 -135l-46 135h-404l-46 -135h-25v157h63q19 6 34.5 39.5t21.5 81.5l41 331l-60 16v10h440v-10l-60 -16v-452h66v-157h-25zM376 478h-174l-40 -332q-10 -93 -46 -124h260v456z"/>
<glyph glyph-name="afii10070" unicode="е" horiz-adv-x="562" d="M515 265l-15 -15h-336q1 -220 186 -220q85 0 144 59l11 -12q-83 -82 -207 -82q-126 0 -194 68q-67 68 -67 181q0 118 71 189t183 71q99 0 164 -56t65 -144q0 -21 -5 -39zM296 489q-56 0 -92.5 -58.5t-39.5 -165.5l235 17q0 207 -103 207z"/>
<glyph glyph-name="afii10072" unicode="ж" horiz-adv-x="855" d="M686 425v44q-8 2 -10 2q-34 0 -49 -72l-13 -53q-15 -61 -58 -82h30q76 0 114.5 -25t50.5 -84l10 -52q16 -111 72 -69l8 -8q-28 -31 -97 -31q-47 0 -68 24t-33 80l-13 63q-11 49 -32 68t-66 19h-42v-218l56 -19v-12h-241v12l60 19v218h-41q-45 0 -66.5 -19.5t-31.5 -67.5 l-13 -63q-13 -56 -34 -80t-67 -24q-67 0 -98 31l8 8q14 -11 28 -11q17 0 26 17t18 63l10 52q12 59 51 84t115 25h29q-45 22 -58 82l-12 53q-17 72 -50 72q-2 0 -10 -2v-44q0 -28 -16.5 -44.5t-44.5 -16.5q-27 0 -42.5 16t-15.5 46q0 39 25.5 59t66.5 20q87 0 109 -106 l12 -53q9 -37 35 -59t67 -22v204l-60 19v12h245v-12l-60 -19v-204q41 0 67.5 22t35.5 59l12 53q22 106 109 106q41 0 66 -20t25 -59q0 -30 -15.5 -46t-42.5 -16q-28 0 -44.5 16.5t-16.5 44.5z"/>
<glyph glyph-name="afii10073" unicode="з" horiz-adv-x="505" d="M165 247v26q36 -3 63 -3q98 0 98 105q0 113 -92 113q-46 0 -89 -30t-55 -100h-22v125l10 10l23 -18q72 29 156 29q92 0 144 -34t52 -91q0 -45 -32.5 -76.5t-89.5 -42.5q66 -10 104 -43.5t38 -84.5q0 -64 -59 -100.5t-166 -36.5q-82 0 -145 26q-62 27 -62 78 q0 26 16.5 42.5t42.5 16.5q28 0 44.5 -19t16.5 -53v-58q39 -17 75 -17q52 0 80.5 31.5t28.5 91.5q0 116 -115 116q-29 0 -65 -3z"/>
<glyph glyph-name="afii10074" unicode="и" d="M17 0v12l60 19v438l-60 19v12h236v-12l-51 -19v-284l-3 -81l3 -3l218 350v18l-50 19v12h236v-12l-60 -19v-438l60 -19v-12h-236v12l50 19v284l3 81l-3 3l-218 -350v-18l51 -19v-12h-236z"/>
<glyph glyph-name="afii10075" unicode="й" d="M367 579v63q0 27 16 43.5t41 16.5q26 0 41 -15.5t15 -39.5q0 -46 -53 -70t-116 -24t-116 24t-53 71q0 24 15.5 39t40.5 15q26 0 41.5 -16t15.5 -44v-63q27 -10 56 -10q30 0 56 10zM17 0v12l60 19v438l-60 19v12h236v-12l-51 -19v-284l-3 -81l3 -3l218 350v18l-50 19v12 h236v-12l-60 -19v-438l60 -19v-12h-236v12l50 19v284l3 81l-3 3l-218 -350v-18l51 -19v-12h-236z"/>
<glyph glyph-name="afii10076" unicode="к" horiz-adv-x="582" d="M407 426v44q-8 2 -10 2q-37 0 -53 -73l-11 -53q-15 -59 -62 -82h29q79 0 119.5 -25t52.5 -84l11 -52q10 -46 19.5 -63t26.5 -17q15 0 29 11l8 -8q-31 -31 -99 -31q-48 0 -70 24t-35 80l-14 63q-11 49 -33 68t-69 19h-44v-218l56 -19v-12h-241v12l60 19v438l-60 19v12h245 v-12l-60 -19v-204q43 0 71 22t37 59l11 53q22 106 111 106q42 0 68 -19.5t26 -58.5q0 -30 -15.5 -46t-42.5 -16q-28 0 -44.5 16.5t-16.5 44.5z"/>
<glyph glyph-name="afii10077" unicode="л" horiz-adv-x="593" d="M181 143l34 331l-60 16v10h421v-10l-60 -16v-443l60 -19v-12h-235v12l50 19v447h-155l-33 -332q-15 -151 -106 -151q-36 0 -59.5 19t-23.5 57q0 60 56 60q28 0 44 -15.5t16 -43.5v-31q4 -2 9 -2q13 0 24.5 28.5t17.5 75.5z"/>
<glyph glyph-name="afii10078" unicode="м" horiz-adv-x="737" d="M703 488l-60 -19l22 -438l60 -19v-12h-245v12l60 19l-20 390l-185 -421h-34l-189 422l-21 -393l60 -19v-10h-140v10l60 19l23 440l-60 19v12h173l161 -370l164 370h171v-12z"/>
<glyph glyph-name="afii10079" unicode="н" horiz-adv-x="621" d="M17 0v12l60 19v438l-60 19v12h235v-12l-50 -19v-202h217v202l-50 19v12h235v-12l-60 -19v-438l60 -19v-12h-235v12l50 19v214h-217v-214l50 -19v-12h-235z"/>
<glyph glyph-name="afii10080" unicode="о" horiz-adv-x="585" d="M292 504q115 0 185 -70q71 -69 71 -185t-71 -185t-185 -69t-185 69q-70 69 -70 185t70 185q70 70 185 70zM164 249q0 -115 34.5 -177t93.5 -62q60 0 94 61.5t34 177.5t-33.5 178t-94.5 62q-59 0 -93.5 -62.5t-34.5 -177.5z"/>
<glyph glyph-name="afii10081" unicode="п" horiz-adv-x="621" d="M17 0v12l60 19v443l-60 16v10h587v-10l-60 -16v-443l60 -19v-12h-235v12l50 19v447h-217v-447l50 -19v-12h-235z"/>
<glyph glyph-name="afii10082" unicode="р" horiz-adv-x="590" d="M292 -200h-275v12l60 19v633l-60 13v13l171 17l14 -14l-3 -56l3 -3q64 70 161 70q92 0 141 -65t49 -178q0 -127 -63.5 -196.5t-178.5 -69.5q-64 0 -109 24v-188l90 -19v-12zM202 411v-377q45 -24 86 -24q67 0 102.5 60.5t35.5 173.5q0 98 -34 159q-33 61 -90 61 q-58 0 -100 -53z"/>
<glyph glyph-name="afii10083" unicode="с" horiz-adv-x="559" d="M370 378v89q-37 22 -73 22q-63 0 -98 -58.5t-35 -161.5q0 -116 44.5 -178t133.5 -62q82 0 144 60l11 -12q-83 -82 -205 -82t-188.5 67.5t-66.5 186.5q0 120 67.5 187.5t191.5 67.5q86 0 150 -34q65 -35 65 -97q0 -33 -19.5 -52t-50.5 -19q-32 0 -51.5 20.5t-19.5 55.5z "/>
<glyph glyph-name="afii10084" unicode="т" horiz-adv-x="544" d="M497 387l-35 91h-127v-447l60 -19v-12h-246v12l60 19v447h-127l-35 -91h-17v113h484v-113h-17z"/>
<glyph glyph-name="afii10085" unicode="у" horiz-adv-x="602" d="M288 -12l-219 481l-60 19v12h249v-12l-60 -19l153 -341l153 341l-84 19v12h172v-12l-64 -19l-212 -469q-48 -106 -85 -156q-34 -46 -86 -46q-39 0 -65.5 19t-26.5 58q0 29 15 44.5t42 15.5t43 -16.5t16 -44.5v-39q6 -2 11 -2q22 0 45.5 35t62.5 120z"/>
<glyph glyph-name="afii10086" unicode="ф" horiz-adv-x="826" d="M473 466l3 -3q50 42 129 42q91 0 137.5 -64t46.5 -178q0 -128 -58.5 -196.5t-166.5 -68.5q-45 0 -88 17v-184l60 -19v-12h-245v12l60 19v167l3 31l-3 3q-47 -38 -127 -38q-93 0 -140 63.5t-47 178.5q0 129 59.5 197.5t169.5 68.5q40 0 85 -17v199l-60 13v13l170 17 l15 -14v-211zM279 23q41 0 72 27v421q-34 14 -62 14q-125 0 -125 -236q0 -105 30.5 -165.5t84.5 -60.5zM549 473q-42 0 -73 -28v-416q36 -14 63 -14q123 0 123 236q0 105 -29.5 163.5t-83.5 58.5z"/>
<glyph glyph-name="afii10087" unicode="х" horiz-adv-x="591" d="M329 12l61 19l-139 191l-143 -191l80 -19v-12h-173v12l68 19l155 209l-162 229l-56 19v12h245v-12l-60 -19l128 -179l134 179l-80 19v12h173v-12l-68 -19l-145 -197l172 -241l56 -19v-12h-246v12z"/>
<glyph glyph-name="afii10088" unicode="ц" horiz-adv-x="628" d="M582 -135l-46 135h-519v10l60 16v443l-60 19v12h235v-12l-50 -19v-447h214v447l-50 19v12h235v-12l-60 -19v-447h66v-157h-25z"/>
<glyph glyph-name="afii10089" unicode="ч" horiz-adv-x="601" d="M251 488l-49 -19v-109q0 -132 86 -132q65 0 111 40v201l-49 19v12h234v-12l-60 -19v-438l60 -19v-12h-245v12l60 19v217q-70 -56 -169 -56q-74 0 -113.5 41t-39.5 111v125l-60 19v12h234v-12z"/>
<glyph glyph-name="afii10090" unicode="ш" horiz-adv-x="883" d="M379 22v447l-48 19v12h221v-12l-48 -19v-447h177v447l-48 19v12h233v-12l-60 -19v-443l60 -16v-10h-849v10l60 16v443l-60 19v12h233v-12l-48 -19v-447h177z"/>
<glyph glyph-name="afii10091" unicode="щ" horiz-adv-x="893" d="M847 -135l-46 135h-784v10l60 16v443l-60 19v12h233v-12l-48 -19v-447h177v447l-48 19v12h221v-12l-48 -19v-447h177v447l-48 19v12h233v-12l-60 -19v-447h66v-157h-25z"/>
<glyph glyph-name="afii10092" unicode="ъ" horiz-adv-x="657" d="M30 500h351v-12l-60 -19v-184h110q87 0 140.5 -39t53.5 -104t-53 -103.5t-141 -38.5h-295v10l60 16v452h-114l-35 -91h-17v113zM389 265h-68v-245h68q51 0 79.5 31t28.5 91t-28.5 91.5t-79.5 31.5z"/>
<glyph glyph-name="afii10093" unicode="ы" horiz-adv-x="783" d="M312 0h-295v10l60 16v443l-60 19v12h245v-12l-60 -19v-184h110q87 0 140.5 -39t53.5 -104t-53 -103.5t-141 -38.5zM271 265h-69v-245h69q51 0 79 31.5t28 90.5q0 60 -28 91.5t-79 31.5zM766 488l-60 -19v-438l60 -19v-12h-245v12l60 19v438l-60 19v12h245v-12z"/>
<glyph glyph-name="afii10094" unicode="ь" horiz-adv-x="538" d="M312 0h-295v10l60 16v443l-60 19v12h245v-12l-60 -19v-184h110q87 0 140.5 -39t53.5 -104t-53 -103.5t-141 -38.5zM271 265h-69v-245h69q51 0 79 31.5t28 90.5q0 60 -28 91.5t-79 31.5z"/>
<glyph glyph-name="afii10095" unicode="э" horiz-adv-x="539" d="M375 246h-201v22h201q-3 105 -41.5 162.5t-107.5 57.5q-51 0 -90 -32t-50 -98h-22v125l10 10l23 -18q56 29 135 29q128 0 199 -69.5t71 -188.5q0 -118 -69 -184.5t-197 -66.5q-78 0 -136 27q-59 29 -59 80q0 26 16.5 42.5t42.5 16.5q27 0 44 -19.5t17 -52.5v-59 q43 -20 76 -20q66 0 101.5 61.5t36.5 174.5z"/>
<glyph glyph-name="afii10096" unicode="ю" horiz-adv-x="817" d="M17 0v12l60 19v438l-60 19v12h235v-12l-50 -19v-202h89q4 107 72 172t172 65q111 0 178 -70q68 -70 68 -185t-68 -185q-67 -69 -178 -69q-108 0 -176 68q-67 67 -69 182h-88v-214l50 -19v-12h-235zM450 428q-32 -62 -32 -179t32 -179q32 -60 86 -60t85 60q32 62 32 179 t-32 179q-31 61 -85 61q-55 0 -86 -61z"/>
<glyph glyph-name="afii10097" unicode="я" horiz-adv-x="584" d="M14 26l8 8q14 -11 29 -11q18 0 28 21q3 7 19 57l14 47q24 81 118 96q-73 7 -115.5 40.5t-42.5 86.5q0 59 52.5 94t139.5 35h303v-10l-60 -16v-443l60 -19v-12h-245v12l60 19v204h-44q-47 0 -71.5 -19.5t-37.5 -64.5l-14 -54q-15 -50 -31 -73q-21 -29 -72 -29 q-67 0 -98 31zM311 255h71v225h-71q-52 0 -82 -29t-30 -83q0 -55 29.5 -84t82.5 -29z"/>
<glyph glyph-name="uni0450" unicode="ѐ" horiz-adv-x="562" d="M515 265l-15 -15h-336q1 -220 186 -220q85 0 144 59l11 -12q-83 -82 -207 -82q-126 0 -194 68q-67 68 -67 181q0 118 71 189t183 71q99 0 164 -56t65 -144q0 -21 -5 -39zM296 489q-56 0 -92.5 -58.5t-39.5 -165.5l235 17q0 207 -103 207zM170 641l67 67l139 -150l-11 -11 z"/>
<glyph glyph-name="afii10071" unicode="ё" horiz-adv-x="562" d="M515 265l-15 -15h-336q1 -220 186 -220q85 0 144 59l11 -12q-83 -82 -207 -82q-126 0 -194 68q-67 68 -67 181q0 118 71 189t183 71q99 0 164 -56t65 -144q0 -21 -5 -39zM296 489q-56 0 -92.5 -58.5t-39.5 -165.5l235 17q0 207 -103 207zM105 611q0 30 19.5 50t50.5 20 t50.5 -20t19.5 -50q0 -31 -19.5 -51t-50.5 -20t-50.5 20t-19.5 51zM332 611q0 30 19.5 50t50.5 20t50.5 -20t19.5 -50q0 -31 -19.5 -51t-50.5 -20t-50.5 20t-19.5 51z"/>
<glyph glyph-name="afii10099" unicode="ђ" d="M17 0v12l60 19v555h-60v9l60 13v76l-60 13v13l171 17l14 -14v-105h176v-22h-176v-86l-3 -68l3 -3q36 35 87.5 55t102.5 20q75 0 114.5 -46t39.5 -128v-309q0 -72 -43 -125.5t-132 -100.5l-12 11q61 89 61 215v291q0 152 -90 152q-32 0 -68 -16t-60 -42v-375l60 -19v-12 h-245z"/>
<glyph glyph-name="afii10100" unicode="ѓ" horiz-adv-x="466" d="M419 387l-35 91h-182v-447l90 -19v-12h-275v12l60 19v443l-60 16v10h419v-113h-17zM166 547l-11 11l139 150l67 -67z"/>
<glyph glyph-name="afii10101" unicode="є" horiz-adv-x="548" d="M37 244q0 121 72.5 190.5t205.5 69.5q80 0 136 -29l23 18l10 -10v-125h-22q-6 38 -22 65t-37 40.5t-41.5 19.5t-41.5 6q-72 0 -113 -58t-43 -163h231v-22h-231q2 -216 178 -216q83 0 144 59l11 -12q-83 -82 -206 -82q-121 0 -187.5 66.5t-66.5 182.5z"/>
<glyph glyph-name="afii10102" unicode="ѕ" horiz-adv-x="454" d="M54 8l-10 10v111h22q29 -119 148 -119q55 0 88 26t33 69q0 33 -21 52q-9 9 -26 16q-27 12 -75 24l-51 15q-14 4 -43 18q-26 13 -40 27q-34 38 -34 96q0 71 45.5 111t136.5 40q73 0 129 -29l22 17l10 -10v-109h-22q-27 116 -135 116q-48 0 -76.5 -24.5t-28.5 -63.5 q0 -34 23 -51.5t84 -35.5l46 -15l41 -16q26 -10 40 -21q62 -47 57 -115q0 -72 -50.5 -112t-150.5 -40q-77 0 -140 29z"/>
<glyph glyph-name="afii10103" unicode="і" horiz-adv-x="279" d="M262 0h-245v12l60 19v433l-60 13v13l171 17l14 -14v-462l60 -19v-12zM212 640q0 -35 -22.5 -57.5t-56.5 -22.5q-53 -4 -73.5 49.5t15.5 86.5q23 23 58 23t57 -22.5t22 -56.5z"/>
<glyph glyph-name="afii10104" unicode="ї" horiz-adv-x="279" d="M262 0h-245v12l60 19v433l-60 13v13l171 17l14 -14v-462l60 -19v-12zM-21 623q0 31 20 51t50 20q31 0 50.5 -20t19.5 -51q0 -30 -19.5 -50t-50.5 -20q-30 0 -50 20t-20 50zM151 623q0 31 20 51t50 20q31 0 51 -20t20 -51q0 -30 -20 -50t-51 -20q-30 0 -50 20t-20 50z"/>
<glyph glyph-name="afii10105" unicode="ј" horiz-adv-x="279" d="M77 21v443l-60 13v13l171 17l14 -14v-472q0 -72 -42.5 -125.5t-132.5 -100.5l-11 11q61 89 61 215zM212 640q0 -35 -22.5 -57.5t-56.5 -22.5q-53 -4 -73.5 49.5t15.5 86.5q23 23 58 23t57 -22.5t22 -56.5z"/>
<glyph glyph-name="afii10106" unicode="љ" horiz-adv-x="852" d="M626 0h-295v10l60 16v452h-155l-33 -332q-15 -151 -106 -151q-36 0 -59.5 19t-23.5 57q0 60 56 60q28 0 44 -15.5t16 -43.5v-31q4 -2 9 -2q13 0 24.5 28.5t17.5 75.5l34 331l-60 16v10h421v-10l-60 -17v-188h110q87 0 140.5 -39t53.5 -104t-53 -103.5t-141 -38.5z M585 265h-69v-245h69q51 0 79.5 31.5t28.5 90.5q0 60 -28.5 91.5t-79.5 31.5z"/>
<glyph glyph-name="afii10107" unicode="њ" horiz-adv-x="874" d="M654 0h-285v12l50 18v215h-217v-214l50 -19v-12h-235v12l60 19v438l-60 19v12h235v-12l-50 -19v-202h217v202l-50 19v12h235v-12l-60 -19v-202h110q85 0 136.5 -36t51.5 -98q0 -60 -52 -96.5t-136 -36.5zM612 245h-68v-225h68q48 0 75.5 29t27.5 83q0 55 -27.5 84 t-75.5 29z"/>
<glyph glyph-name="afii10108" unicode="ћ" d="M17 595l60 13v76l-60 13v13l171 17l14 -14v-105h176v-22h-176v-86l-3 -68l3 -3q36 35 87.5 55t102.5 20q75 0 114.5 -46t39.5 -128v-299l60 -19v-12h-236v12l50 19v281q0 152 -90 152q-32 0 -68 -16t-60 -42v-375l51 -19v-12h-236v12l60 19v555h-60v9z"/>
<glyph glyph-name="afii10109" unicode="ќ" horiz-adv-x="582" d="M407 426v44q-8 2 -10 2q-37 0 -53 -73l-11 -53q-15 -59 -62 -82h29q79 0 119.5 -25t52.5 -84l11 -52q10 -46 19.5 -63t26.5 -17q15 0 29 11l8 -8q-31 -31 -99 -31q-48 0 -70 24t-35 80l-14 63q-11 49 -33 68t-69 19h-44v-218l56 -19v-12h-241v12l60 19v438l-60 19v12h245 v-12l-60 -19v-204q43 0 71 22t37 59l11 53q22 106 111 106q42 0 68 -19.5t26 -58.5q0 -30 -15.5 -46t-42.5 -16q-28 0 -44.5 16.5t-16.5 44.5zM218 547l-10 11l138 150l67 -67z"/>
<glyph glyph-name="uni045D" unicode="ѝ" d="M188 641l67 67l138 -150l-10 -11zM17 0v12l60 19v438l-60 19v12h236v-12l-51 -19v-284l-3 -81l3 -3l218 350v18l-50 19v12h236v-12l-60 -19v-438l60 -19v-12h-236v12l50 19v284l3 81l-3 3l-218 -350v-18l51 -19v-12h-236z"/>
<glyph glyph-name="afii10110" unicode="ў" horiz-adv-x="602" d="M377 579v63q0 28 15.5 44t41.5 16q25 0 40.5 -15.5t15.5 -39.5q0 -46 -53 -70q-52 -24 -116 -24q-63 0 -116 24t-53 71q-4 37 34 50q36 11 62 -11q19 -18 17 -45v-63q26 -10 56 -10q29 0 56 10zM288 -12l-219 481l-60 19v12h249v-12l-60 -19l153 -341l153 341l-84 19v12 h172v-12l-64 -19l-212 -469q-48 -106 -85 -156q-34 -46 -86 -46q-39 0 -65.5 19t-26.5 58q0 29 15 44.5t42 15.5t43 -16.5t16 -44.5v-39q6 -2 11 -2q22 0 45.5 35t62.5 120z"/>
<glyph glyph-name="afii10193" unicode="џ" horiz-adv-x="621" d="M298 -135l-23 135h-258v10l60 16v443l-60 19v12h235v-12l-50 -19v-447h217v447l-50 19v12h235v-12l-60 -19v-443l60 -16v-10h-259l-23 -135h-24z"/>
<glyph glyph-name="afii10050" unicode="Ґ" horiz-adv-x="538" d="M17 690v10h425l50 106h17v-128h-297v-647l95 -19v-12h-290v12l65 19v643z"/>
<glyph glyph-name="afii10098" unicode="ґ" horiz-adv-x="433" d="M404 591v-113h-202v-447l90 -19v-12h-275v12l60 19v443l-60 16v10h330l39 91h18z"/>
<glyph glyph-name="uni04D8" unicode="Ә" horiz-adv-x="734" d="M96 592l-12 11q100 103 257 103q159 0 253 -96q95 -97 95 -259t-95 -260q-94 -97 -245 -97q-134 0 -220 77q-84 77 -84 199q0 35 7 55l20 20h481q0 154 -65 239t-192 85q-126 0 -200 -77zM347 11q94 0 149 82.5t57 236.5l-380 -26q0 -293 174 -293z"/>
<glyph glyph-name="afii10846" unicode="ә" horiz-adv-x="562" d="M47 234l14 15h336q0 220 -181 220q-82 0 -141 -59l-11 12q82 82 204 82q124 0 190 -69q67 -68 67 -180q0 -119 -72 -189q-71 -71 -182 -71q-101 0 -165 55t-64 145q0 21 5 39zM266 10q56 0 92.5 58.5t38.5 165.5l-235 -17q0 -207 104 -207z"/>
</font>
</defs>
</svg>
